<svg width="223" height="80" viewBox="0 0 223 80" fill="none" xmlns="http://www.w3.org/2000/svg">
<path fill-rule="evenodd" clip-rule="evenodd" d="M38.4684 60.7152L57.6408 51.2892L39.3394 40.6604L38.4684 60.7152Z" fill="#FAAC91"/>
<path fill-rule="evenodd" clip-rule="evenodd" d="M40.9858 36.4955L59.7199 26.4119L40.9858 16.435V36.4955Z" fill="#9BD6B2"/>
<path fill-rule="evenodd" clip-rule="evenodd" d="M0.00562286 40.0028L0.191053 40.0084C0.443913 39.7555 0.40458 39.8342 0.752964 39.6487C3.57376 38.1817 6.65865 36.3718 9.45135 34.9835C11.0303 34.1966 12.4913 33.286 14.0815 32.4935C15.5818 31.7459 17.1832 30.7286 18.706 30.0485V29.9361L0.0842906 19.9649L0.00562286 19.9817V40.0028Z" fill="#FAAC91"/>
<path fill-rule="evenodd" clip-rule="evenodd" d="M0.00562286 60.0183L0.0786714 60.0407L9.33897 55.0439C10.8842 54.1839 12.4126 53.3858 13.9747 52.5595L17.4867 50.6935C17.925 50.4742 18.4307 50.2213 18.6611 49.9628L0.191053 40.014L0.00562286 40.0084V60.0183Z" fill="#FFFF8B"/>
<path fill-rule="evenodd" clip-rule="evenodd" d="M18.706 29.9304V30.0429L37.2379 40.0084H37.3671V20.0042L18.706 29.9304Z" fill="#FFFF8B"/>
<path fill-rule="evenodd" clip-rule="evenodd" d="M38.356 39.3452L56.9834 49.4288V29.374L38.356 39.3452Z" fill="#FFFF8B"/>
<path fill-rule="evenodd" clip-rule="evenodd" d="M0.00561924 19.9817L0.084287 19.9649L9.40639 14.9905C11.0022 14.2036 12.4969 13.3043 14.0478 12.5061L18.6892 9.9712L8.25447 4.34484C6.50693 3.48486 4.07947 2.0291 2.4106 1.20285C1.77564 0.888085 0.516958 0.118036 0 0V19.9817H0.00561924Z" fill="#9BD6B2"/>
<path fill-rule="evenodd" clip-rule="evenodd" d="M18.7229 49.9628L18.7116 50.0752L37.3671 59.9958V40.0084H37.2379L18.7229 49.9628Z" fill="#9BD6B2"/>
<path fill-rule="evenodd" clip-rule="evenodd" d="M18.6723 70.0344L0.0786714 60.0351L0.00562286 60.0126V80C0.724869 79.8314 10.9741 74.1263 12.7498 73.2383L18.6723 70.0344Z" fill="#9BD6B2"/>
<path fill-rule="evenodd" clip-rule="evenodd" d="M18.706 29.9304L37.3671 19.9986C37.1255 19.7738 36.631 19.577 36.2938 19.3691C35.8949 19.1274 35.5577 19.0037 35.1419 18.7677L32.8044 17.4917C32.3492 17.2613 32.057 17.1039 31.6637 16.8791C30.2814 16.0753 27.1122 14.5465 25.7973 13.7596C25.3759 13.5066 25.0669 13.3661 24.6567 13.1525L18.6779 9.97119L18.706 29.9304Z" fill="#9BD6B2"/>
<path fill-rule="evenodd" clip-rule="evenodd" d="M18.7004 70.0344L24.5162 66.9318C24.9601 66.6845 25.3085 66.5496 25.7355 66.291L36.2264 60.6759C36.5692 60.4679 37.1535 60.215 37.3671 60.0014L18.7116 50.0808L18.7004 70.0344Z" fill="#FFFF8B"/>
<path fill-rule="evenodd" clip-rule="evenodd" d="M0.0786972 60.0351L18.6723 70.0288H18.7004L18.7117 50.0696L18.7229 49.9571H18.6611C18.4307 50.2157 17.925 50.4686 17.4867 50.6878L13.9748 52.5539C12.4126 53.3858 10.8842 54.1839 9.33899 55.0383L0.0786972 60.0351Z" fill="#FAAC91"/>
<path fill-rule="evenodd" clip-rule="evenodd" d="M0.191101 40.0084L18.6611 49.9571H18.7229L18.7061 30.0372C17.1777 30.723 15.5818 31.7347 14.0815 32.4823C12.497 33.2748 11.0304 34.1853 9.45139 34.9722C6.6587 36.3606 3.57381 38.1761 0.753012 39.6375C0.404627 39.8342 0.443961 39.7555 0.191101 40.0084Z" fill="#9BD6B2"/>
<path fill-rule="evenodd" clip-rule="evenodd" d="M0.0843048 19.9649L18.706 29.9361L18.6779 9.97681H18.6948L14.0534 12.5118C12.4969 13.3099 11.0079 14.2036 9.41203 14.9961L0.0843048 19.9649Z" fill="#FFFF8B"/>
<path fill-rule="evenodd" clip-rule="evenodd" d="M18.7229 49.9628L37.2379 40.0084L18.706 30.0429L18.7229 49.9628Z" fill="#FAAC91"/>
<path fill-rule="evenodd" clip-rule="evenodd" d="M57.7476 48.7712L72.2112 51.2893L67.39 38.2491L57.7476 48.7712Z" fill="#9BD6B2"/>
<path fill-rule="evenodd" clip-rule="evenodd" d="M48.7682 7.77912L58.6242 16.4351L61.6922 4.16498L48.7682 7.77912Z" fill="#9BD6B2"/>
<path fill-rule="evenodd" clip-rule="evenodd" d="M58.6242 21.3701L71.992 22.7977L66.7326 11.1797L58.6242 21.3701Z" fill="#FFFF8B"/>
<path fill-rule="evenodd" clip-rule="evenodd" d="M71.1154 44.6062L81.9659 39.0135L71.2278 33.0949L71.1154 44.6062Z" fill="#FFFF8B"/>
<path fill-rule="evenodd" clip-rule="evenodd" d="M61.0348 39.452L69.5815 31.0152L57.5285 28.2723L61.0348 39.452Z" fill="#FAAC91"/>
<path fill-rule="evenodd" clip-rule="evenodd" d="M74.9533 47.6751L83.3876 55.3474L86.2365 44.713L74.9533 47.6751Z" fill="#FAAC91"/>
<path fill-rule="evenodd" clip-rule="evenodd" d="M186.515 25.4732V45.8596C186.515 46.6634 186.161 47.0287 185.599 47.3547C185.582 47.366 185.549 47.3772 185.526 47.3941L190.55 47.1917C190.224 46.9613 189.909 46.5285 189.909 46.0788V38.6257H194.399C195.5 38.6257 196.663 41.2956 197.175 42.3186C197.562 43.0886 199.22 46.1294 199.22 46.7365C199.22 46.9219 199.175 46.9669 199.063 47.1299L198.782 47.3941H204.041C203.901 47.2704 204.007 47.3435 203.783 47.2142C202.552 46.4948 202.524 46.3374 201.557 44.3982L198.995 39.5082C198.759 39.1035 198.529 38.7662 198.012 38.6257V38.4065C199.596 38.3728 201.237 37.3161 202.316 36.2425C205.109 33.4659 205.053 25.5631 198.282 24.2198C195.281 23.624 189.139 23.9387 185.526 23.9387C185.79 24.1692 186.515 24.3715 186.515 25.4732ZM193.859 38.2997H189.915V25.2596C189.915 23.9725 191.055 24.2704 192.432 24.2704C195.556 24.2704 198.343 25.0179 199.664 27.5585C200.546 29.256 200.428 30.3126 200.428 32.1619C200.434 35.9727 197.416 38.2997 193.859 38.2997Z" fill="black"/>
<path fill-rule="evenodd" clip-rule="evenodd" d="M150.469 47.3941C152.25 47.3941 153.312 47.3547 154.975 46.7533C156.363 46.2531 157.577 45.3706 158.481 44.2352C159.701 42.6951 159.667 41.1438 159.667 39.1766C159.667 37.985 159.527 25.9228 159.796 25.0573C159.864 24.8437 159.97 24.5907 160.133 24.4053L160.763 23.9387H155.391C155.638 24.1523 156.38 24.3659 156.38 25.5856V43.2291C156.38 45.7303 153.885 47.0625 151.339 47.0625C148.485 47.0625 145.535 46.2924 145.535 42.8975V25.7992C145.535 24.8437 145.777 24.557 146.4 24.0343L141.259 23.9331C141.866 24.765 142.248 23.86 142.248 27.002V39.2777C142.248 41.0314 142.203 41.5597 142.697 42.8806C143.737 45.6348 147.266 47.3941 150.469 47.3941Z" fill="black"/>
<path fill-rule="evenodd" clip-rule="evenodd" d="M115.737 35.2308C115.737 38.0412 116.316 40.3232 117.928 42.4647C119.164 44.1059 120.62 45.4437 122.53 46.298C132.566 50.7778 142.922 41.0595 138.556 30.9253C138.056 29.7674 137.028 28.306 136.196 27.4742C132.796 24.0793 127.273 22.8708 122.783 24.9617C120.901 25.8385 119.164 27.1538 117.973 28.8063C116.726 30.5375 115.737 32.8364 115.737 35.2308ZM119.018 35.776C119.018 35.2139 119.125 34.0055 119.204 33.5502C119.327 32.8083 119.434 32.2462 119.636 31.5717C119.996 30.3576 120.513 29.1997 121.142 28.2555C121.558 27.6372 122.244 26.7379 122.806 26.3051C124.767 24.7818 125.424 24.3772 128.11 24.3772C132.869 24.3772 136.218 30.3689 136.218 35.5568C136.218 38.7438 135.319 41.4642 133.915 43.4483C131.055 47.4896 126.059 48.389 122.547 44.8479C120.232 42.504 119.018 39.0529 119.018 35.776Z" fill="black"/>
<path fill-rule="evenodd" clip-rule="evenodd" d="M206.676 25.5856V45.8596C206.676 46.5285 206.407 46.9613 205.901 47.276L205.761 47.3547C205.744 47.366 205.71 47.3772 205.688 47.3941H223V44.2127C222.691 44.5668 222.455 45.4437 221.067 46.1182C218.156 47.529 213.863 47.0625 210.396 47.0625C210.261 46.5622 209.958 46.388 209.958 45.1964V35.9896C209.958 35.7367 210.037 35.6636 210.29 35.6636C212.015 35.6636 214.363 35.45 215.791 36.5179C216.128 36.7709 216.139 36.9845 216.426 37.1981V33.9099C216.207 34.0729 215.397 35.332 213.464 35.332H209.958V26.1252C209.958 25.462 210.143 24.2647 210.722 24.2647C213.807 24.2647 217.797 23.9612 220.426 24.9673C222.55 25.7823 222.539 26.5917 222.994 27.1144V23.9331H205.682C205.834 24.0624 205.682 23.9444 205.873 24.068C206.384 24.4053 206.676 24.8043 206.676 25.5856Z" fill="black"/>
<path fill-rule="evenodd" clip-rule="evenodd" d="M171.068 46.5172C171.068 46.8882 170.95 47.0344 170.703 47.2479L175.777 47.3941C175.266 46.95 175.226 47.1355 175.226 46.4048C175.226 45.6685 181.216 28.2779 181.924 26.1421C182.379 24.7706 182.514 24.6807 183.475 24.0736C183.677 23.9443 183.554 24.0343 183.666 23.9331H180.817C181.278 24.3378 181.362 24.3097 181.362 25.0292C181.362 25.6531 179.986 29.4358 179.705 30.2789L174.462 45.9664C174.08 45.6854 173.608 43.7799 173.434 43.2685L170.613 34.9104C170.001 33.0668 169.377 31.2007 168.753 29.3234L167.382 25.1022C167.309 24.4952 167.562 24.2928 167.938 23.9893C167.95 23.9781 167.978 23.9556 168 23.9387H162.634C163.016 24.2704 163.274 24.2029 163.702 24.7369C164.471 25.6868 169.394 41.7565 170.664 44.9547C170.821 45.3538 171.068 46.0226 171.068 46.5172Z" fill="black"/>
<path fill-rule="evenodd" clip-rule="evenodd" d="M100.065 25.5856V45.7528C100.065 46.5397 99.7673 46.9276 99.2728 47.2592C99.0874 47.3828 99.2335 47.2592 99.0818 47.3941H116.394V44.2127C115.911 44.5668 116.265 44.7186 115.439 45.4493C115.085 45.7584 114.484 46.1463 114.001 46.3149C110.916 47.4109 107.449 47.0681 104.122 47.0681C103.566 47.0681 103.352 46.0339 103.352 45.4268V25.9172C103.352 24.3828 104.077 24.3041 104.341 23.9444H99.0818C99.4358 24.2479 100.065 24.4334 100.065 25.5856Z" fill="black"/>
<path d="M122.738 51.1544H123.48L125.239 55.9994H124.514L124.025 54.5437H122.103L121.575 55.9994H120.906L122.738 51.1544ZM123.811 54.0153L123.081 51.8738L122.294 54.0153H123.811ZM118.496 51.0195C119.103 51.0195 119.586 51.1825 119.923 51.5085C120.26 51.8345 120.451 52.1998 120.485 52.6101H119.85C119.777 52.301 119.636 52.0481 119.412 51.8682C119.193 51.6827 118.889 51.5984 118.501 51.5984C118.029 51.5984 117.642 51.7614 117.344 52.0986C117.052 52.4359 116.906 52.953 116.906 53.6387C116.906 54.2064 117.04 54.6673 117.305 55.027C117.569 55.3812 117.968 55.5554 118.496 55.5554C118.973 55.5554 119.35 55.3699 119.597 54.9933C119.732 54.8022 119.833 54.538 119.901 54.2233H120.536C120.479 54.7348 120.294 55.1619 119.968 55.5104C119.58 55.932 119.063 56.14 118.412 56.14C117.844 56.14 117.372 55.9657 116.99 55.6285C116.484 55.1732 116.231 54.4818 116.231 53.5375C116.231 52.8237 116.422 52.2335 116.799 51.7726C117.209 51.2724 117.771 51.0195 118.496 51.0195ZM114.714 51.1544H115.377V55.9994H114.714V51.1544ZM109.691 51.1544H110.466L112.91 55.0833V51.1544H113.54V55.9994H112.804L110.314 52.0705V55.9994H109.685V51.1544H109.691ZM108.983 49.8335L108.106 50.789H107.645L108.252 49.8335H108.983ZM107.96 51.1544H108.623V55.9994H107.96V51.1544ZM104.049 51.1544H104.707V55.4205H107.168V55.9994H104.049V51.1544ZM101.223 51.0195C101.83 51.0195 102.313 51.1825 102.65 51.5085C102.987 51.8345 103.178 52.1998 103.212 52.6101H102.577C102.504 52.301 102.363 52.0481 102.139 51.8682C101.919 51.6827 101.616 51.5984 101.228 51.5984C100.756 51.5984 100.369 51.7614 100.071 52.0986C99.7785 52.4359 99.6325 52.953 99.6325 53.6387C99.6325 54.2064 99.7673 54.6673 100.031 55.027C100.296 55.3812 100.694 55.5554 101.223 55.5554C101.7 55.5554 102.077 55.3699 102.324 54.9933C102.459 54.8022 102.56 54.538 102.627 54.2233H103.262C103.206 54.7348 103.021 55.1619 102.695 55.5104C102.307 55.932 101.79 56.14 101.138 56.14C100.571 56.14 100.099 55.9657 99.7167 55.6285C99.211 55.1732 98.9582 54.4818 98.9582 53.5375C98.9582 52.8237 99.1492 52.2335 99.5257 51.7726C99.9359 51.2724 100.498 51.0195 101.223 51.0195Z" fill="black"/>
<path d="M151.143 51.1544V51.7277H149.513V55.9994H148.845V51.7277H147.209V51.1544H151.143ZM142.737 51.1544H143.512L145.956 55.0832V51.1544H146.586V55.9994H145.85L143.36 52.0705V55.9994H142.731V51.1544H142.737ZM139.641 55.5554C140.214 55.5554 140.635 55.3474 140.888 54.9315C141.152 54.5212 141.281 54.0378 141.281 53.4982C141.281 52.9305 141.13 52.4696 140.837 52.1267C140.534 51.7726 140.129 51.604 139.612 51.604C139.107 51.604 138.702 51.7726 138.382 52.1155C138.062 52.4584 137.91 52.9699 137.91 53.6387C137.91 54.1783 138.045 54.6336 138.314 54.9989C138.59 55.3755 139.028 55.5554 139.641 55.5554ZM139.573 51.0195C140.427 51.0195 141.062 51.2949 141.472 51.8457C141.798 52.2785 141.95 52.8237 141.95 53.4926C141.95 54.2177 141.77 54.8191 141.405 55.2968C140.972 55.8589 140.36 56.1399 139.562 56.1399C138.82 56.1399 138.23 55.8926 137.803 55.4036C137.415 54.9259 137.23 54.3244 137.23 53.5994C137.23 52.9417 137.393 52.3797 137.719 51.9132C138.135 51.3174 138.758 51.0195 139.573 51.0195ZM132.633 51.1544H134.595C135.263 51.1544 135.78 51.3904 136.151 51.8626C136.477 52.2897 136.64 52.835 136.64 53.4982C136.64 54.0097 136.544 54.4762 136.348 54.8978C136.011 55.6341 135.421 55.9994 134.589 55.9994H132.633V51.1544ZM134.465 55.443C134.69 55.443 134.87 55.4149 135.01 55.3755C135.258 55.2856 135.471 55.1226 135.634 54.8753C135.769 54.6786 135.864 54.4312 135.921 54.1277C135.954 53.9422 135.966 53.7736 135.966 53.6219C135.966 53.0204 135.853 52.5539 135.606 52.2223C135.37 51.8907 134.982 51.722 134.46 51.722H133.291V55.4486H134.465V55.443ZM129.504 55.5554C130.077 55.5554 130.498 55.3474 130.751 54.9315C131.015 54.5212 131.144 54.0378 131.144 53.4982C131.144 52.9305 130.998 52.4696 130.7 52.1267C130.397 51.7726 129.992 51.604 129.476 51.604C128.97 51.604 128.565 51.7726 128.245 52.1155C127.925 52.4584 127.773 52.9699 127.773 53.6387C127.773 54.1783 127.908 54.6336 128.178 54.9989C128.453 55.3755 128.891 55.5554 129.504 55.5554ZM129.436 51.0195C130.29 51.0195 130.925 51.2949 131.335 51.8457C131.661 52.2785 131.813 52.8237 131.813 53.4926C131.813 54.2177 131.633 54.8191 131.268 55.2968C130.835 55.8589 130.223 56.1399 129.425 56.1399C128.683 56.1399 128.093 55.8926 127.666 55.4036C127.278 54.9259 127.093 54.3244 127.093 53.5994C127.093 52.9417 127.256 52.3797 127.582 51.9132C127.998 51.3174 128.621 51.0195 129.436 51.0195Z" fill="black"/>
<path d="M179.328 51.1544H180.07L181.829 55.9994H181.104L180.615 54.5437H178.693L178.165 55.9994H177.496L179.328 51.1544ZM180.402 54.0153L179.671 51.8738L178.884 54.0153H180.402ZM175.08 51.0195C175.687 51.0195 176.17 51.1825 176.507 51.5085C176.845 51.8345 177.036 52.1998 177.069 52.6101H176.434C176.361 52.301 176.221 52.0481 175.996 51.8682C175.777 51.6827 175.474 51.5984 175.086 51.5984C174.614 51.5984 174.226 51.7614 173.928 52.0986C173.636 52.4359 173.49 52.953 173.49 53.6387C173.49 54.2064 173.625 54.6673 173.889 55.0271C174.153 55.3812 174.552 55.5554 175.08 55.5554C175.558 55.5554 175.934 55.3699 176.182 54.9933C176.316 54.8022 176.418 54.538 176.485 54.2233H177.12C177.064 54.7348 176.878 55.162 176.552 55.5104C176.165 55.932 175.648 56.14 174.996 56.14C174.428 56.14 173.956 55.9657 173.574 55.6285C173.069 55.1732 172.816 54.4818 172.816 53.5376C172.816 52.8237 173.007 52.2335 173.383 51.7726C173.799 51.2724 174.361 51.0195 175.08 51.0195ZM171.304 51.1544H171.967V55.9994H171.304V51.1544ZM167.995 51.0307C168.455 51.0307 168.849 51.1206 169.175 51.2949C169.652 51.5534 169.95 51.9919 170.062 52.627H169.416C169.338 52.2729 169.175 52.0143 168.922 51.8513C168.674 51.6883 168.36 51.6153 167.983 51.6153C167.528 51.6153 167.157 51.7783 166.848 52.1155C166.545 52.4527 166.387 52.953 166.387 53.6219C166.387 54.1952 166.517 54.6673 166.764 55.0271C167.022 55.3924 167.433 55.5666 168 55.5666C168.438 55.5666 168.804 55.443 169.09 55.1901C169.382 54.9315 169.523 54.5268 169.529 53.9591H168.017V53.4139H170.147V56.0107H169.72L169.562 55.3868C169.338 55.6285 169.141 55.7971 168.967 55.8926C168.686 56.0556 168.32 56.1343 167.871 56.1343C167.298 56.1343 166.803 55.9432 166.393 55.5723C165.938 55.1057 165.713 54.4706 165.713 53.65C165.713 52.8406 165.938 52.1942 166.376 51.7164C166.792 51.2555 167.331 51.0307 167.995 51.0307ZM163.466 49.6817L162.578 50.6373H162.123L162.724 49.6817H163.466ZM162.802 55.5554C163.376 55.5554 163.797 55.3474 164.05 54.9315C164.314 54.5212 164.443 54.0378 164.443 53.4982C164.443 52.9305 164.297 52.4696 163.999 52.1267C163.696 51.7726 163.291 51.604 162.774 51.604C162.269 51.604 161.864 51.7726 161.544 52.1155C161.224 52.4584 161.072 52.9699 161.072 53.6387C161.072 54.1783 161.207 54.6336 161.476 54.9989C161.746 55.3755 162.19 55.5554 162.802 55.5554ZM162.735 51.0195C163.589 51.0195 164.224 51.2949 164.634 51.8457C164.96 52.2785 165.112 52.8237 165.112 53.4926C165.112 54.2177 164.932 54.8191 164.567 55.2968C164.134 55.8589 163.522 56.14 162.724 56.14C161.982 56.14 161.392 55.8926 160.965 55.4036C160.577 54.9259 160.392 54.3245 160.392 53.5994C160.392 52.9418 160.555 52.3797 160.881 51.9132C161.297 51.3174 161.915 51.0195 162.735 51.0195ZM156.88 51.1544H157.537V55.4205H159.999V55.9994H156.88V51.1544ZM153.789 55.5554C154.363 55.5554 154.784 55.3474 155.037 54.9315C155.301 54.5212 155.43 54.0378 155.43 53.4982C155.43 52.9305 155.284 52.4696 154.986 52.1267C154.683 51.7726 154.278 51.604 153.761 51.604C153.256 51.604 152.851 51.7726 152.531 52.1155C152.21 52.4584 152.059 52.9699 152.059 53.6387C152.059 54.1783 152.194 54.6336 152.463 54.9989C152.733 55.3755 153.171 55.5554 153.789 55.5554ZM153.722 51.0195C154.576 51.0195 155.211 51.2949 155.621 51.8457C155.947 52.2785 156.099 52.8237 156.099 53.4926C156.099 54.2177 155.919 54.8191 155.554 55.2968C155.121 55.8589 154.509 56.14 153.711 56.14C152.969 56.14 152.379 55.8926 151.952 55.4036C151.564 54.9259 151.379 54.3245 151.379 53.5994C151.379 52.9418 151.542 52.3797 151.868 51.9132C152.278 51.3174 152.902 51.0195 153.722 51.0195Z" fill="black"/>
<path d="M220.263 51.1544H221.005L222.764 55.9994H222.039L221.55 54.5437H219.629L219.1 55.9994H218.432L220.263 51.1544ZM221.337 54.0153L220.606 51.8738L219.82 54.0153H221.337ZM216.021 51.0195C216.628 51.0195 217.111 51.1825 217.448 51.5085C217.785 51.8345 217.977 52.1998 218.01 52.6101H217.37C217.297 52.301 217.156 52.0481 216.931 51.8682C216.712 51.6827 216.409 51.5984 216.021 51.5984C215.549 51.5984 215.161 51.7614 214.864 52.0986C214.571 52.4359 214.425 52.953 214.425 53.6387C214.425 54.2064 214.56 54.6673 214.824 55.027C215.088 55.3812 215.487 55.5554 216.015 55.5554C216.493 55.5554 216.87 55.3699 217.117 54.9933C217.252 54.8022 217.353 54.538 217.42 54.2233H218.055C217.999 54.7348 217.814 55.1619 217.488 55.5104C217.1 55.932 216.583 56.14 215.931 56.14C215.364 56.14 214.892 55.9657 214.51 55.6285C214.004 55.1732 213.751 54.4818 213.751 53.5375C213.751 52.8237 213.942 52.2335 214.318 51.7726C214.734 51.2724 215.296 51.0195 216.021 51.0195ZM212.239 51.1544H212.902V55.9994H212.239V51.1544ZM211.492 51.1544V51.7277H209.863V55.9994H209.194V51.7277H207.559V51.1544H211.492ZM206.058 49.8166L205.171 50.7721H204.715L205.317 49.8166H206.058ZM203.524 51.1544H207.053V51.7502H204.159V53.2172H206.834V53.7792H204.159V55.4205H207.104V55.9994H203.524V51.1544ZM202.855 51.1544V51.7277H201.226V55.9994H200.557V51.7277H198.922V51.1544H202.855ZM195.253 54.4369C195.264 54.7123 195.331 54.9371 195.449 55.1114C195.669 55.4317 196.051 55.5891 196.601 55.5891C196.843 55.5891 197.073 55.5554 197.276 55.4823C197.669 55.3474 197.854 55.1057 197.854 54.7516C197.854 54.4875 197.776 54.2964 197.613 54.1839C197.444 54.0771 197.18 53.9816 196.826 53.8973L196.163 53.7455C195.736 53.65 195.433 53.5432 195.258 53.4308C194.949 53.2284 194.792 52.9249 194.792 52.5202C194.792 52.0874 194.949 51.7277 195.247 51.4523C195.551 51.1656 195.978 51.0307 196.528 51.0307C197.034 51.0307 197.467 51.1544 197.821 51.396C198.18 51.6377 198.355 52.0312 198.355 52.5708H197.742C197.708 52.3122 197.641 52.1099 197.534 51.975C197.332 51.7164 196.995 51.5984 196.512 51.5984C196.118 51.5984 195.843 51.6771 195.674 51.8401C195.506 52.0031 195.421 52.1942 195.421 52.4078C195.421 52.6439 195.517 52.8181 195.719 52.9305C195.848 52.998 196.141 53.0879 196.596 53.1947L197.276 53.3521C197.602 53.4251 197.849 53.5263 198.034 53.6556C198.338 53.886 198.495 54.212 198.495 54.6448C198.495 55.1844 198.298 55.5666 197.916 55.8027C197.523 56.0332 197.073 56.1456 196.551 56.1456C195.95 56.1456 195.478 55.9882 195.14 55.6847C194.798 55.3755 194.629 54.9596 194.635 54.4313H195.253V54.4369ZM190.375 51.1544H193.904V51.7502H191.01V53.2172H193.685V53.7792H191.01V55.4205H193.955V55.9994H190.375V51.1544ZM183.992 51.1544H187.521V51.7502H184.627V53.2172H187.302V53.7792H184.627V55.4205H187.571V55.9994H183.992V51.1544Z" fill="black"/>
</svg>
