<svg width="120" height="120" viewBox="0 0 120 120" fill="none" xmlns="http://www.w3.org/2000/svg">
<path fill-rule="evenodd" clip-rule="evenodd" d="M26.25 0C27.2446 0 28.1984 0.395088 28.9016 1.09835C29.6049 1.80161 30 2.75544 30 3.75V7.5H90V3.75C90 2.75544 90.3951 1.80161 91.0983 1.09835C91.8016 0.395088 92.7554 0 93.75 0C94.7446 0 95.6984 0.395088 96.4017 1.09835C97.1049 1.80161 97.5 2.75544 97.5 3.75V7.5H105C108.978 7.5 112.794 9.08035 115.607 11.8934C118.42 14.7064 120 18.5218 120 22.5V105C120 108.978 118.42 112.794 115.607 115.607C112.794 118.42 108.978 120 105 120H15C11.0218 120 7.20644 118.42 4.3934 115.607C1.58035 112.794 0 108.978 0 105V22.5C0 18.5218 1.58035 14.7064 4.3934 11.8934C7.20644 9.08035 11.0218 7.5 15 7.5H22.5V3.75C22.5 2.75544 22.8951 1.80161 23.5984 1.09835C24.3016 0.395088 25.2554 0 26.25 0V0ZM7.5 30V105C7.5 106.989 8.29018 108.897 9.6967 110.303C11.1032 111.71 13.0109 112.5 15 112.5H105C106.989 112.5 108.897 111.71 110.303 110.303C111.71 108.897 112.5 106.989 112.5 105V30H7.5Z" fill="#F77950"/>
<path fill-rule="evenodd" clip-rule="evenodd" d="M81.4042 53.5944C81.7535 53.9427 82.0305 54.3565 82.2196 54.8121C82.4086 55.2677 82.5059 55.7561 82.5059 56.2494C82.5059 56.7426 82.4086 57.231 82.2196 57.6866C82.0305 58.1422 81.7535 58.556 81.4042 58.9044L58.9042 81.4044C58.5559 81.7536 58.1421 82.0307 57.6865 82.2197C57.2309 82.4088 56.7425 82.5061 56.2492 82.5061C55.756 82.5061 55.2676 82.4088 54.812 82.2197C54.3564 82.0307 53.9426 81.7536 53.5942 81.4044L42.3442 70.1544C41.9956 69.8057 41.719 69.3918 41.5303 68.9363C41.3416 68.4807 41.2445 67.9925 41.2445 67.4994C41.2445 67.0063 41.3416 66.5181 41.5303 66.0625C41.719 65.607 41.9956 65.193 42.3442 64.8444C43.0484 64.1402 44.0034 63.7446 44.9992 63.7446C45.4923 63.7446 45.9806 63.8418 46.4361 64.0305C46.8917 64.2191 47.3056 64.4957 47.6542 64.8444L56.2492 73.4469L76.0942 53.5944C76.4426 53.2452 76.8564 52.9681 77.312 52.779C77.7676 52.59 78.256 52.4927 78.7492 52.4927C79.2425 52.4927 79.7309 52.59 80.1865 52.779C80.6421 52.9681 81.0559 53.2452 81.4042 53.5944Z" fill="#F77950"/>
</svg>
