<svg width="120" height="120" viewBox="0 0 120 120" fill="none" xmlns="http://www.w3.org/2000/svg">
<path fill-rule="evenodd" clip-rule="evenodd" d="M18.75 112.5C17.7554 112.5 16.8016 112.105 16.0984 111.402C15.3951 110.698 15 109.745 15 108.75C15 107.755 15.3951 106.802 16.0984 106.098C16.8016 105.395 17.7554 105 18.75 105H26.25V97.5C26.2485 91.1323 28.0484 84.894 31.4419 79.5058C34.8354 74.1177 39.6839 69.7994 45.4275 67.05C47.6025 66.0075 48.75 64.2225 48.75 62.625V57.375C48.75 55.7775 47.595 53.9925 45.4275 52.95C39.6839 50.2006 34.8354 45.8823 31.4419 40.4942C28.0484 35.106 26.2485 28.8677 26.25 22.5V15H18.75C17.7554 15 16.8016 14.6049 16.0984 13.9017C15.3951 13.1984 15 12.2446 15 11.25C15 10.2554 15.3951 9.30161 16.0984 8.59835C16.8016 7.89509 17.7554 7.5 18.75 7.5H101.25C102.245 7.5 103.198 7.89509 103.902 8.59835C104.605 9.30161 105 10.2554 105 11.25C105 12.2446 104.605 13.1984 103.902 13.9017C103.198 14.6049 102.245 15 101.25 15H93.75V22.5C93.7515 28.8677 91.9516 35.106 88.5581 40.4942C85.1646 45.8823 80.3161 50.2006 74.5725 52.95C72.3975 53.9925 71.25 55.7775 71.25 57.375V62.625C71.25 64.2225 72.405 66.0075 74.5725 67.05C80.3161 69.7994 85.1646 74.1177 88.5581 79.5058C91.9516 84.894 93.7515 91.1323 93.75 97.5V105H101.25C102.245 105 103.198 105.395 103.902 106.098C104.605 106.802 105 107.755 105 108.75C105 109.745 104.605 110.698 103.902 111.402C103.198 112.105 102.245 112.5 101.25 112.5H18.75ZM33.75 15V22.5C33.75 26.5275 34.65 30.3375 36.2775 33.75H83.7225C85.3425 30.3375 86.25 26.5275 86.25 22.5V15H33.75ZM56.25 62.625C56.25 67.8825 52.665 71.895 48.6675 73.815C44.1997 75.9533 40.4281 79.3121 37.7884 83.5033C35.1487 87.6944 33.7486 92.5469 33.75 97.5C33.75 97.5 40.245 87.7575 56.25 86.4V62.625ZM63.75 62.625C63.75 67.8825 67.335 71.895 71.3325 73.815C75.8003 75.9533 79.5719 79.3121 82.2116 83.5033C84.8513 87.6944 86.2514 92.5469 86.25 97.5C86.25 97.5 79.755 87.7575 63.75 86.4V62.625Z" fill="#F77950"/>
</svg>
