<svg width="1032" height="168" viewBox="0 0 1032 168" fill="none" xmlns="http://www.w3.org/2000/svg">
<path d="M907.094 132.8C908.523 132.8 909.643 133.141 910.454 133.824C911.265 134.507 911.67 135.445 911.67 136.64C911.67 137.835 911.265 138.773 910.454 139.456C909.643 140.128 908.523 140.464 907.094 140.464H904.086V144H902.902V132.8H907.094ZM907.062 139.424C908.171 139.424 909.019 139.184 909.606 138.704C910.193 138.213 910.486 137.525 910.486 136.64C910.486 135.733 910.193 135.04 909.606 134.56C909.019 134.069 908.171 133.824 907.062 133.824H904.086V139.424H907.062ZM916.856 135.52C917.955 135.52 918.797 135.797 919.384 136.352C919.971 136.896 920.264 137.707 920.264 138.784V144H919.176V142.688C918.92 143.125 918.541 143.467 918.04 143.712C917.549 143.957 916.963 144.08 916.28 144.08C915.341 144.08 914.595 143.856 914.04 143.408C913.485 142.96 913.208 142.368 913.208 141.632C913.208 140.917 913.464 140.341 913.976 139.904C914.499 139.467 915.325 139.248 916.456 139.248H919.128V138.736C919.128 138.011 918.925 137.461 918.52 137.088C918.115 136.704 917.523 136.512 916.744 136.512C916.211 136.512 915.699 136.603 915.208 136.784C914.717 136.955 914.296 137.195 913.944 137.504L913.432 136.656C913.859 136.293 914.371 136.016 914.968 135.824C915.565 135.621 916.195 135.52 916.856 135.52ZM916.456 143.184C917.096 143.184 917.645 143.04 918.104 142.752C918.563 142.453 918.904 142.027 919.128 141.472V140.096H916.488C915.048 140.096 914.328 140.597 914.328 141.6C914.328 142.091 914.515 142.48 914.888 142.768C915.261 143.045 915.784 143.184 916.456 143.184ZM931.173 135.584V142.976C931.173 144.405 930.821 145.461 930.117 146.144C929.424 146.837 928.373 147.184 926.965 147.184C926.186 147.184 925.445 147.067 924.741 146.832C924.048 146.608 923.482 146.293 923.045 145.888L923.621 145.024C924.026 145.387 924.517 145.669 925.093 145.872C925.68 146.075 926.293 146.176 926.933 146.176C928 146.176 928.784 145.925 929.285 145.424C929.786 144.933 930.037 144.165 930.037 143.12V142.048C929.685 142.581 929.221 142.987 928.645 143.264C928.08 143.541 927.45 143.68 926.757 143.68C925.968 143.68 925.248 143.509 924.597 143.168C923.957 142.816 923.45 142.331 923.077 141.712C922.714 141.083 922.533 140.373 922.533 139.584C922.533 138.795 922.714 138.091 923.077 137.472C923.45 136.853 923.957 136.373 924.597 136.032C925.237 135.691 925.957 135.52 926.757 135.52C927.472 135.52 928.117 135.664 928.693 135.952C929.269 136.24 929.733 136.656 930.085 137.2V135.584H931.173ZM926.869 142.672C927.477 142.672 928.026 142.544 928.517 142.288C929.008 142.021 929.386 141.653 929.653 141.184C929.93 140.715 930.069 140.181 930.069 139.584C930.069 138.987 929.93 138.459 929.653 138C929.386 137.531 929.008 137.168 928.517 136.912C928.037 136.645 927.488 136.512 926.869 136.512C926.261 136.512 925.712 136.64 925.221 136.896C924.741 137.152 924.362 137.515 924.085 137.984C923.818 138.453 923.685 138.987 923.685 139.584C923.685 140.181 923.818 140.715 924.085 141.184C924.362 141.653 924.741 142.021 925.221 142.288C925.712 142.544 926.261 142.672 926.869 142.672ZM937.294 135.52C938.392 135.52 939.235 135.797 939.822 136.352C940.408 136.896 940.702 137.707 940.702 138.784V144H939.614V142.688C939.358 143.125 938.979 143.467 938.478 143.712C937.987 143.957 937.4 144.08 936.718 144.08C935.779 144.08 935.032 143.856 934.478 143.408C933.923 142.96 933.646 142.368 933.646 141.632C933.646 140.917 933.902 140.341 934.414 139.904C934.936 139.467 935.763 139.248 936.894 139.248H939.566V138.736C939.566 138.011 939.363 137.461 938.958 137.088C938.552 136.704 937.96 136.512 937.182 136.512C936.648 136.512 936.136 136.603 935.646 136.784C935.155 136.955 934.734 137.195 934.382 137.504L933.87 136.656C934.296 136.293 934.808 136.016 935.406 135.824C936.003 135.621 936.632 135.52 937.294 135.52ZM936.894 143.184C937.534 143.184 938.083 143.04 938.542 142.752C939 142.453 939.342 142.027 939.566 141.472V140.096H936.926C935.486 140.096 934.766 140.597 934.766 141.6C934.766 142.091 934.952 142.48 935.326 142.768C935.699 143.045 936.222 143.184 936.894 143.184ZM954.283 135.52C955.339 135.52 956.166 135.824 956.763 136.432C957.371 137.04 957.675 137.936 957.675 139.12V144H956.539V139.232C956.539 138.357 956.326 137.691 955.899 137.232C955.483 136.773 954.891 136.544 954.123 136.544C953.248 136.544 952.56 136.816 952.059 137.36C951.558 137.893 951.307 138.635 951.307 139.584V144H950.171V139.232C950.171 138.357 949.958 137.691 949.531 137.232C949.115 136.773 948.518 136.544 947.739 136.544C946.875 136.544 946.187 136.816 945.675 137.36C945.174 137.893 944.923 138.635 944.923 139.584V144H943.787V135.584H944.875V137.12C945.174 136.608 945.59 136.213 946.123 135.936C946.656 135.659 947.27 135.52 947.963 135.52C948.667 135.52 949.275 135.669 949.787 135.968C950.31 136.267 950.699 136.709 950.955 137.296C951.264 136.741 951.707 136.309 952.283 136C952.87 135.68 953.536 135.52 954.283 135.52ZM968.115 140.144H961.075C961.139 141.019 961.475 141.728 962.083 142.272C962.691 142.805 963.459 143.072 964.387 143.072C964.91 143.072 965.39 142.981 965.827 142.8C966.264 142.608 966.643 142.331 966.963 141.968L967.603 142.704C967.23 143.152 966.76 143.493 966.195 143.728C965.64 143.963 965.027 144.08 964.355 144.08C963.491 144.08 962.723 143.899 962.051 143.536C961.39 143.163 960.872 142.651 960.499 142C960.126 141.349 959.939 140.613 959.939 139.792C959.939 138.971 960.115 138.235 960.467 137.584C960.83 136.933 961.32 136.427 961.939 136.064C962.568 135.701 963.272 135.52 964.051 135.52C964.83 135.52 965.528 135.701 966.147 136.064C966.766 136.427 967.251 136.933 967.603 137.584C967.955 138.224 968.131 138.96 968.131 139.792L968.115 140.144ZM964.051 136.496C963.24 136.496 962.558 136.757 962.003 137.28C961.459 137.792 961.15 138.464 961.075 139.296H967.043C966.968 138.464 966.654 137.792 966.099 137.28C965.555 136.757 964.872 136.496 964.051 136.496ZM974.731 135.52C975.787 135.52 976.625 135.829 977.243 136.448C977.873 137.056 978.187 137.947 978.187 139.12V144H977.051V139.232C977.051 138.357 976.833 137.691 976.395 137.232C975.958 136.773 975.334 136.544 974.523 136.544C973.617 136.544 972.897 136.816 972.363 137.36C971.841 137.893 971.579 138.635 971.579 139.584V144H970.443V135.584H971.531V137.136C971.841 136.624 972.267 136.229 972.811 135.952C973.366 135.664 974.006 135.52 974.731 135.52ZM985.704 143.488C985.49 143.68 985.224 143.829 984.904 143.936C984.594 144.032 984.269 144.08 983.928 144.08C983.138 144.08 982.53 143.867 982.104 143.44C981.677 143.013 981.464 142.411 981.464 141.632V136.544H979.96V135.584H981.464V133.744H982.6V135.584H985.16V136.544H982.6V141.568C982.6 142.069 982.722 142.453 982.968 142.72C983.224 142.976 983.586 143.104 984.056 143.104C984.29 143.104 984.514 143.067 984.728 142.992C984.952 142.917 985.144 142.811 985.304 142.672L985.704 143.488ZM990.915 144.08C990.104 144.08 989.373 143.899 988.723 143.536C988.072 143.163 987.56 142.651 987.187 142C986.813 141.349 986.627 140.613 986.627 139.792C986.627 138.971 986.813 138.235 987.187 137.584C987.56 136.933 988.072 136.427 988.723 136.064C989.373 135.701 990.104 135.52 990.915 135.52C991.725 135.52 992.456 135.701 993.107 136.064C993.757 136.427 994.264 136.933 994.627 137.584C995 138.235 995.187 138.971 995.187 139.792C995.187 140.613 995 141.349 994.627 142C994.264 142.651 993.757 143.163 993.107 143.536C992.456 143.899 991.725 144.08 990.915 144.08ZM990.915 143.072C991.512 143.072 992.045 142.939 992.515 142.672C992.995 142.395 993.368 142.005 993.635 141.504C993.901 141.003 994.035 140.432 994.035 139.792C994.035 139.152 993.901 138.581 993.635 138.08C993.368 137.579 992.995 137.195 992.515 136.928C992.045 136.651 991.512 136.512 990.915 136.512C990.317 136.512 989.779 136.651 989.299 136.928C988.829 137.195 988.456 137.579 988.179 138.08C987.912 138.581 987.779 139.152 987.779 139.792C987.779 140.432 987.912 141.003 988.179 141.504C988.456 142.005 988.829 142.395 989.299 142.672C989.779 142.939 990.317 143.072 990.915 143.072ZM916.278 155.52C917.334 155.52 918.172 155.829 918.79 156.448C919.42 157.056 919.734 157.947 919.734 159.12V164H918.598V159.232C918.598 158.357 918.38 157.691 917.942 157.232C917.505 156.773 916.881 156.544 916.07 156.544C915.164 156.544 914.444 156.816 913.91 157.36C913.388 157.893 913.126 158.635 913.126 159.584V164H911.99V155.584H913.078V157.136C913.388 156.624 913.814 156.229 914.358 155.952C914.913 155.664 915.553 155.52 916.278 155.52ZM926.29 164.08C925.479 164.08 924.748 163.899 924.098 163.536C923.447 163.163 922.935 162.651 922.562 162C922.188 161.349 922.002 160.613 922.002 159.792C922.002 158.971 922.188 158.235 922.562 157.584C922.935 156.933 923.447 156.427 924.098 156.064C924.748 155.701 925.479 155.52 926.29 155.52C927.1 155.52 927.831 155.701 928.482 156.064C929.132 156.427 929.639 156.933 930.002 157.584C930.375 158.235 930.562 158.971 930.562 159.792C930.562 160.613 930.375 161.349 930.002 162C929.639 162.651 929.132 163.163 928.482 163.536C927.831 163.899 927.1 164.08 926.29 164.08ZM926.29 163.072C926.887 163.072 927.42 162.939 927.89 162.672C928.37 162.395 928.743 162.005 929.01 161.504C929.276 161.003 929.41 160.432 929.41 159.792C929.41 159.152 929.276 158.581 929.01 158.08C928.743 157.579 928.37 157.195 927.89 156.928C927.42 156.651 926.887 156.512 926.29 156.512C925.692 156.512 925.154 156.651 924.674 156.928C924.204 157.195 923.831 157.579 923.554 158.08C923.287 158.581 923.154 159.152 923.154 159.792C923.154 160.432 923.287 161.003 923.554 161.504C923.831 162.005 924.204 162.395 924.674 162.672C925.154 162.939 925.692 163.072 926.29 163.072ZM940.556 164.08C939.724 164.08 938.978 163.899 938.316 163.536C937.666 163.173 937.154 162.667 936.78 162.016C936.407 161.355 936.22 160.613 936.22 159.792C936.22 158.971 936.407 158.235 936.78 157.584C937.154 156.933 937.666 156.427 938.316 156.064C938.978 155.701 939.724 155.52 940.556 155.52C941.282 155.52 941.927 155.664 942.492 155.952C943.068 156.229 943.522 156.64 943.852 157.184L943.004 157.76C942.727 157.344 942.375 157.035 941.948 156.832C941.522 156.619 941.058 156.512 940.556 156.512C939.948 156.512 939.399 156.651 938.908 156.928C938.428 157.195 938.05 157.579 937.772 158.08C937.506 158.581 937.372 159.152 937.372 159.792C937.372 160.443 937.506 161.019 937.772 161.52C938.05 162.011 938.428 162.395 938.908 162.672C939.399 162.939 939.948 163.072 940.556 163.072C941.058 163.072 941.522 162.971 941.948 162.768C942.375 162.565 942.727 162.256 943.004 161.84L943.852 162.416C943.522 162.96 943.068 163.376 942.492 163.664C941.916 163.941 941.271 164.08 940.556 164.08ZM949.028 155.52C950.127 155.52 950.969 155.797 951.556 156.352C952.143 156.896 952.436 157.707 952.436 158.784V164H951.348V162.688C951.092 163.125 950.713 163.467 950.212 163.712C949.721 163.957 949.135 164.08 948.452 164.08C947.513 164.08 946.767 163.856 946.212 163.408C945.657 162.96 945.38 162.368 945.38 161.632C945.38 160.917 945.636 160.341 946.148 159.904C946.671 159.467 947.497 159.248 948.628 159.248H951.3V158.736C951.3 158.011 951.097 157.461 950.692 157.088C950.287 156.704 949.695 156.512 948.916 156.512C948.383 156.512 947.871 156.603 947.38 156.784C946.889 156.955 946.468 157.195 946.116 157.504L945.604 156.656C946.031 156.293 946.543 156.016 947.14 155.824C947.737 155.621 948.367 155.52 949.028 155.52ZM948.628 163.184C949.268 163.184 949.817 163.04 950.276 162.752C950.735 162.453 951.076 162.027 951.3 161.472V160.096H948.66C947.22 160.096 946.5 160.597 946.5 161.6C946.5 162.091 946.687 162.48 947.06 162.768C947.433 163.045 947.956 163.184 948.628 163.184ZM956.61 157.232C956.876 156.667 957.271 156.24 957.794 155.952C958.327 155.664 958.983 155.52 959.762 155.52V156.624L959.49 156.608C958.604 156.608 957.911 156.88 957.41 157.424C956.908 157.968 956.658 158.731 956.658 159.712V164H955.522V155.584H956.61V157.232ZM966.61 163.488C966.396 163.68 966.13 163.829 965.81 163.936C965.5 164.032 965.175 164.08 964.834 164.08C964.044 164.08 963.436 163.867 963.01 163.44C962.583 163.013 962.37 162.411 962.37 161.632V156.544H960.866V155.584H962.37V153.744H963.506V155.584H966.066V156.544H963.506V161.568C963.506 162.069 963.628 162.453 963.874 162.72C964.13 162.976 964.492 163.104 964.962 163.104C965.196 163.104 965.42 163.067 965.634 162.992C965.858 162.917 966.05 162.811 966.21 162.672L966.61 163.488ZM971.622 155.52C972.72 155.52 973.563 155.797 974.15 156.352C974.736 156.896 975.03 157.707 975.03 158.784V164H973.942V162.688C973.686 163.125 973.307 163.467 972.806 163.712C972.315 163.957 971.728 164.08 971.046 164.08C970.107 164.08 969.36 163.856 968.806 163.408C968.251 162.96 967.974 162.368 967.974 161.632C967.974 160.917 968.23 160.341 968.742 159.904C969.264 159.467 970.091 159.248 971.222 159.248H973.894V158.736C973.894 158.011 973.691 157.461 973.286 157.088C972.88 156.704 972.288 156.512 971.51 156.512C970.976 156.512 970.464 156.603 969.974 156.784C969.483 156.955 969.062 157.195 968.71 157.504L968.198 156.656C968.624 156.293 969.136 156.016 969.734 155.824C970.331 155.621 970.96 155.52 971.622 155.52ZM971.222 163.184C971.862 163.184 972.411 163.04 972.87 162.752C973.328 162.453 973.67 162.027 973.894 161.472V160.096H971.254C969.814 160.096 969.094 160.597 969.094 161.6C969.094 162.091 969.28 162.48 969.654 162.768C970.027 163.045 970.55 163.184 971.222 163.184ZM972.742 154.176C972.496 154.176 972.278 154.123 972.086 154.016C971.894 153.899 971.686 153.739 971.462 153.536C971.27 153.376 971.115 153.264 970.998 153.2C970.891 153.125 970.774 153.088 970.646 153.088C970.4 153.088 970.203 153.179 970.054 153.36C969.904 153.541 969.824 153.792 969.814 154.112H969.126C969.147 153.579 969.286 153.152 969.542 152.832C969.798 152.512 970.139 152.352 970.566 152.352C970.811 152.352 971.024 152.405 971.206 152.512C971.398 152.619 971.616 152.779 971.862 152.992C972.032 153.141 972.176 153.253 972.294 153.328C972.411 153.403 972.534 153.44 972.662 153.44C972.896 153.44 973.088 153.355 973.238 153.184C973.387 153.003 973.472 152.757 973.494 152.448H974.182C974.16 152.971 974.022 153.392 973.766 153.712C973.51 154.021 973.168 154.176 972.742 154.176ZM981.587 164.08C980.776 164.08 980.045 163.899 979.395 163.536C978.744 163.163 978.232 162.651 977.859 162C977.485 161.349 977.299 160.613 977.299 159.792C977.299 158.971 977.485 158.235 977.859 157.584C978.232 156.933 978.744 156.427 979.395 156.064C980.045 155.701 980.776 155.52 981.587 155.52C982.397 155.52 983.128 155.701 983.779 156.064C984.429 156.427 984.936 156.933 985.299 157.584C985.672 158.235 985.859 158.971 985.859 159.792C985.859 160.613 985.672 161.349 985.299 162C984.936 162.651 984.429 163.163 983.779 163.536C983.128 163.899 982.397 164.08 981.587 164.08ZM981.587 163.072C982.184 163.072 982.717 162.939 983.187 162.672C983.667 162.395 984.04 162.005 984.307 161.504C984.573 161.003 984.707 160.432 984.707 159.792C984.707 159.152 984.573 158.581 984.307 158.08C984.04 157.579 983.667 157.195 983.187 156.928C982.717 156.651 982.184 156.512 981.587 156.512C980.989 156.512 980.451 156.651 979.971 156.928C979.501 157.195 979.128 157.579 978.851 158.08C978.584 158.581 978.451 159.152 978.451 159.792C978.451 160.432 978.584 161.003 978.851 161.504C979.128 162.005 979.501 162.395 979.971 162.672C980.451 162.939 980.989 163.072 981.587 163.072Z" fill="black"/>
<g clip-path="url(#clip0)">
<path fill-rule="evenodd" clip-rule="evenodd" d="M993 22.5H903C901.011 22.5 899.103 23.2902 897.697 24.6967C896.29 26.1032 895.5 28.0109 895.5 30V90C895.5 91.9891 896.29 93.8968 897.697 95.3033C899.103 96.7098 901.011 97.5 903 97.5H993C994.989 97.5 996.897 96.7098 998.303 95.3033C999.71 93.8968 1000.5 91.9891 1000.5 90V30C1000.5 28.0109 999.71 26.1032 998.303 24.6967C996.897 23.2902 994.989 22.5 993 22.5ZM903 15C899.022 15 895.206 16.5804 892.393 19.3934C889.58 22.2064 888 26.0218 888 30V90C888 93.9782 889.58 97.7936 892.393 100.607C895.206 103.42 899.022 105 903 105H993C996.978 105 1000.79 103.42 1003.61 100.607C1006.42 97.7936 1008 93.9782 1008 90V30C1008 26.0218 1006.42 22.2064 1003.61 19.3934C1000.79 16.5804 996.978 15 993 15H903Z" fill="#F77950"/>
<path d="M970.5 41.25C970.5 40.2554 970.895 39.3016 971.598 38.5984C972.302 37.8951 973.255 37.5 974.25 37.5H989.25C990.245 37.5 991.198 37.8951 991.902 38.5984C992.605 39.3016 993 40.2554 993 41.25V48.75C993 49.7446 992.605 50.6984 991.902 51.4016C991.198 52.1049 990.245 52.5 989.25 52.5H974.25C973.255 52.5 972.302 52.1049 971.598 51.4016C970.895 50.6984 970.5 49.7446 970.5 48.75V41.25ZM895.5 67.5H1000.5V82.5H895.5V67.5Z" fill="#F77950"/>
</g>
<path d="M682.911 141.008H676.671L675.327 144H674.095L679.215 132.8H680.383L685.503 144H684.255L682.911 141.008ZM682.479 140.048L679.791 134.032L677.103 140.048H682.479ZM694.829 135.584V142.976C694.829 144.405 694.477 145.461 693.773 146.144C693.08 146.837 692.029 147.184 690.621 147.184C689.842 147.184 689.101 147.067 688.397 146.832C687.704 146.608 687.138 146.293 686.701 145.888L687.277 145.024C687.682 145.387 688.173 145.669 688.749 145.872C689.336 146.075 689.949 146.176 690.589 146.176C691.656 146.176 692.44 145.925 692.941 145.424C693.442 144.933 693.693 144.165 693.693 143.12V142.048C693.341 142.581 692.877 142.987 692.301 143.264C691.736 143.541 691.106 143.68 690.413 143.68C689.624 143.68 688.904 143.509 688.253 143.168C687.613 142.816 687.106 142.331 686.733 141.712C686.37 141.083 686.189 140.373 686.189 139.584C686.189 138.795 686.37 138.091 686.733 137.472C687.106 136.853 687.613 136.373 688.253 136.032C688.893 135.691 689.613 135.52 690.413 135.52C691.128 135.52 691.773 135.664 692.349 135.952C692.925 136.24 693.389 136.656 693.741 137.2V135.584H694.829ZM690.525 142.672C691.133 142.672 691.682 142.544 692.173 142.288C692.664 142.021 693.042 141.653 693.309 141.184C693.586 140.715 693.725 140.181 693.725 139.584C693.725 138.987 693.586 138.459 693.309 138C693.042 137.531 692.664 137.168 692.173 136.912C691.693 136.645 691.144 136.512 690.525 136.512C689.917 136.512 689.368 136.64 688.877 136.896C688.397 137.152 688.018 137.515 687.741 137.984C687.474 138.453 687.341 138.987 687.341 139.584C687.341 140.181 687.474 140.715 687.741 141.184C688.018 141.653 688.397 142.021 688.877 142.288C689.368 142.544 689.917 142.672 690.525 142.672ZM705.334 140.144H698.294C698.358 141.019 698.694 141.728 699.302 142.272C699.91 142.805 700.678 143.072 701.606 143.072C702.129 143.072 702.609 142.981 703.046 142.8C703.483 142.608 703.862 142.331 704.182 141.968L704.822 142.704C704.449 143.152 703.979 143.493 703.414 143.728C702.859 143.963 702.246 144.08 701.574 144.08C700.71 144.08 699.942 143.899 699.27 143.536C698.609 143.163 698.091 142.651 697.718 142C697.345 141.349 697.158 140.613 697.158 139.792C697.158 138.971 697.334 138.235 697.686 137.584C698.049 136.933 698.539 136.427 699.158 136.064C699.787 135.701 700.491 135.52 701.27 135.52C702.049 135.52 702.747 135.701 703.366 136.064C703.985 136.427 704.47 136.933 704.822 137.584C705.174 138.224 705.35 138.96 705.35 139.792L705.334 140.144ZM701.27 136.496C700.459 136.496 699.777 136.757 699.222 137.28C698.678 137.792 698.369 138.464 698.294 139.296H704.262C704.187 138.464 703.873 137.792 703.318 137.28C702.774 136.757 702.091 136.496 701.27 136.496ZM711.95 135.52C713.006 135.52 713.843 135.829 714.462 136.448C715.091 137.056 715.406 137.947 715.406 139.12V144H714.27V139.232C714.27 138.357 714.051 137.691 713.614 137.232C713.177 136.773 712.553 136.544 711.742 136.544C710.835 136.544 710.115 136.816 709.582 137.36C709.059 137.893 708.798 138.635 708.798 139.584V144H707.662V135.584H708.75V137.136C709.059 136.624 709.486 136.229 710.03 135.952C710.585 135.664 711.225 135.52 711.95 135.52ZM726.202 132.128V144H725.114V142.336C724.772 142.901 724.319 143.333 723.754 143.632C723.199 143.931 722.57 144.08 721.866 144.08C721.076 144.08 720.362 143.899 719.722 143.536C719.082 143.173 718.58 142.667 718.218 142.016C717.855 141.365 717.674 140.624 717.674 139.792C717.674 138.96 717.855 138.219 718.218 137.568C718.58 136.917 719.082 136.416 719.722 136.064C720.362 135.701 721.076 135.52 721.866 135.52C722.548 135.52 723.162 135.664 723.706 135.952C724.26 136.229 724.714 136.64 725.066 137.184V132.128H726.202ZM721.962 143.072C722.548 143.072 723.076 142.939 723.546 142.672C724.026 142.395 724.399 142.005 724.666 141.504C724.943 141.003 725.082 140.432 725.082 139.792C725.082 139.152 724.943 138.581 724.666 138.08C724.399 137.579 724.026 137.195 723.546 136.928C723.076 136.651 722.548 136.512 721.962 136.512C721.364 136.512 720.826 136.651 720.346 136.928C719.876 137.195 719.503 137.579 719.226 138.08C718.959 138.581 718.826 139.152 718.826 139.792C718.826 140.432 718.959 141.003 719.226 141.504C719.503 142.005 719.876 142.395 720.346 142.672C720.826 142.939 721.364 143.072 721.962 143.072ZM732.309 135.52C733.408 135.52 734.251 135.797 734.837 136.352C735.424 136.896 735.717 137.707 735.717 138.784V144H734.629V142.688C734.373 143.125 733.995 143.467 733.493 143.712C733.003 143.957 732.416 144.08 731.733 144.08C730.795 144.08 730.048 143.856 729.493 143.408C728.939 142.96 728.661 142.368 728.661 141.632C728.661 140.917 728.917 140.341 729.429 139.904C729.952 139.467 730.779 139.248 731.909 139.248H734.581V138.736C734.581 138.011 734.379 137.461 733.973 137.088C733.568 136.704 732.976 136.512 732.197 136.512C731.664 136.512 731.152 136.603 730.661 136.784C730.171 136.955 729.749 137.195 729.397 137.504L728.885 136.656C729.312 136.293 729.824 136.016 730.421 135.824C731.019 135.621 731.648 135.52 732.309 135.52ZM731.909 143.184C732.549 143.184 733.099 143.04 733.557 142.752C734.016 142.453 734.357 142.027 734.581 141.472V140.096H731.941C730.501 140.096 729.781 140.597 729.781 141.6C729.781 142.091 729.968 142.48 730.341 142.768C730.715 143.045 731.237 143.184 731.909 143.184ZM749.299 135.52C750.355 135.52 751.181 135.824 751.779 136.432C752.387 137.04 752.691 137.936 752.691 139.12V144H751.555V139.232C751.555 138.357 751.341 137.691 750.915 137.232C750.499 136.773 749.907 136.544 749.139 136.544C748.264 136.544 747.576 136.816 747.075 137.36C746.573 137.893 746.323 138.635 746.323 139.584V144H745.187V139.232C745.187 138.357 744.973 137.691 744.547 137.232C744.131 136.773 743.533 136.544 742.755 136.544C741.891 136.544 741.203 136.816 740.691 137.36C740.189 137.893 739.939 138.635 739.939 139.584V144H738.803V135.584H739.891V137.12C740.189 136.608 740.605 136.213 741.139 135.936C741.672 135.659 742.285 135.52 742.979 135.52C743.683 135.52 744.291 135.669 744.803 135.968C745.325 136.267 745.715 136.709 745.971 137.296C746.28 136.741 746.723 136.309 747.299 136C747.885 135.68 748.552 135.52 749.299 135.52ZM763.131 140.144H756.091C756.155 141.019 756.491 141.728 757.099 142.272C757.707 142.805 758.475 143.072 759.403 143.072C759.925 143.072 760.405 142.981 760.843 142.8C761.28 142.608 761.659 142.331 761.979 141.968L762.619 142.704C762.245 143.152 761.776 143.493 761.211 143.728C760.656 143.963 760.043 144.08 759.371 144.08C758.507 144.08 757.739 143.899 757.067 143.536C756.405 143.163 755.888 142.651 755.515 142C755.141 141.349 754.955 140.613 754.955 139.792C754.955 138.971 755.131 138.235 755.483 137.584C755.845 136.933 756.336 136.427 756.955 136.064C757.584 135.701 758.288 135.52 759.067 135.52C759.845 135.52 760.544 135.701 761.163 136.064C761.781 136.427 762.267 136.933 762.619 137.584C762.971 138.224 763.147 138.96 763.147 139.792L763.131 140.144ZM759.067 136.496C758.256 136.496 757.573 136.757 757.019 137.28C756.475 137.792 756.165 138.464 756.091 139.296H762.059C761.984 138.464 761.669 137.792 761.115 137.28C760.571 136.757 759.888 136.496 759.067 136.496ZM769.747 135.52C770.803 135.52 771.64 135.829 772.259 136.448C772.888 137.056 773.203 137.947 773.203 139.12V144H772.067V139.232C772.067 138.357 771.848 137.691 771.411 137.232C770.974 136.773 770.35 136.544 769.539 136.544C768.632 136.544 767.912 136.816 767.379 137.36C766.856 137.893 766.595 138.635 766.595 139.584V144H765.459V135.584H766.547V137.136C766.856 136.624 767.283 136.229 767.827 135.952C768.382 135.664 769.022 135.52 769.747 135.52ZM780.719 143.488C780.506 143.68 780.239 143.829 779.919 143.936C779.61 144.032 779.284 144.08 778.943 144.08C778.154 144.08 777.546 143.867 777.119 143.44C776.692 143.013 776.479 142.411 776.479 141.632V136.544H774.975V135.584H776.479V133.744H777.615V135.584H780.175V136.544H777.615V141.568C777.615 142.069 777.738 142.453 777.983 142.72C778.239 142.976 778.602 143.104 779.071 143.104C779.306 143.104 779.53 143.067 779.743 142.992C779.967 142.917 780.159 142.811 780.319 142.672L780.719 143.488ZM785.93 144.08C785.12 144.08 784.389 143.899 783.738 143.536C783.088 143.163 782.576 142.651 782.202 142C781.829 141.349 781.642 140.613 781.642 139.792C781.642 138.971 781.829 138.235 782.202 137.584C782.576 136.933 783.088 136.427 783.738 136.064C784.389 135.701 785.12 135.52 785.93 135.52C786.741 135.52 787.472 135.701 788.122 136.064C788.773 136.427 789.28 136.933 789.642 137.584C790.016 138.235 790.202 138.971 790.202 139.792C790.202 140.613 790.016 141.349 789.642 142C789.28 142.651 788.773 143.163 788.122 143.536C787.472 143.899 786.741 144.08 785.93 144.08ZM785.93 143.072C786.528 143.072 787.061 142.939 787.53 142.672C788.01 142.395 788.384 142.005 788.65 141.504C788.917 141.003 789.05 140.432 789.05 139.792C789.05 139.152 788.917 138.581 788.65 138.08C788.384 137.579 788.01 137.195 787.53 136.928C787.061 136.651 786.528 136.512 785.93 136.512C785.333 136.512 784.794 136.651 784.314 136.928C783.845 137.195 783.472 137.579 783.194 138.08C782.928 138.581 782.794 139.152 782.794 139.792C782.794 140.432 782.928 141.003 783.194 141.504C783.472 142.005 783.845 142.395 784.314 142.672C784.794 142.939 785.333 143.072 785.93 143.072ZM712.54 164.08C711.729 164.08 710.998 163.899 710.348 163.536C709.697 163.163 709.185 162.651 708.812 162C708.438 161.349 708.252 160.613 708.252 159.792C708.252 158.971 708.438 158.235 708.812 157.584C709.185 156.933 709.697 156.427 710.348 156.064C710.998 155.701 711.729 155.52 712.54 155.52C713.35 155.52 714.081 155.701 714.732 156.064C715.382 156.427 715.889 156.933 716.252 157.584C716.625 158.235 716.812 158.971 716.812 159.792C716.812 160.613 716.625 161.349 716.252 162C715.889 162.651 715.382 163.163 714.732 163.536C714.081 163.899 713.35 164.08 712.54 164.08ZM712.54 163.072C713.137 163.072 713.67 162.939 714.14 162.672C714.62 162.395 714.993 162.005 715.26 161.504C715.526 161.003 715.66 160.432 715.66 159.792C715.66 159.152 715.526 158.581 715.26 158.08C714.993 157.579 714.62 157.195 714.14 156.928C713.67 156.651 713.137 156.512 712.54 156.512C711.942 156.512 711.404 156.651 710.924 156.928C710.454 157.195 710.081 157.579 709.804 158.08C709.537 158.581 709.404 159.152 709.404 159.792C709.404 160.432 709.537 161.003 709.804 161.504C710.081 162.005 710.454 162.395 710.924 162.672C711.404 162.939 711.942 163.072 712.54 163.072ZM723.419 155.52C724.475 155.52 725.312 155.829 725.931 156.448C726.56 157.056 726.875 157.947 726.875 159.12V164H725.739V159.232C725.739 158.357 725.52 157.691 725.083 157.232C724.646 156.773 724.022 156.544 723.211 156.544C722.304 156.544 721.584 156.816 721.051 157.36C720.528 157.893 720.267 158.635 720.267 159.584V164H719.131V155.584H720.219V157.136C720.528 156.624 720.955 156.229 721.499 155.952C722.054 155.664 722.694 155.52 723.419 155.52ZM729.959 152.128H731.095V164H729.959V152.128ZM734.256 155.584H735.392V164H734.256V155.584ZM734.832 153.744C734.597 153.744 734.4 153.664 734.24 153.504C734.08 153.344 734 153.152 734 152.928C734 152.715 734.08 152.528 734.24 152.368C734.4 152.208 734.597 152.128 734.832 152.128C735.067 152.128 735.264 152.208 735.424 152.368C735.584 152.517 735.664 152.699 735.664 152.912C735.664 153.147 735.584 153.344 735.424 153.504C735.264 153.664 735.067 153.744 734.832 153.744ZM742.841 155.52C743.897 155.52 744.734 155.829 745.353 156.448C745.982 157.056 746.297 157.947 746.297 159.12V164H745.161V159.232C745.161 158.357 744.942 157.691 744.505 157.232C744.067 156.773 743.443 156.544 742.633 156.544C741.726 156.544 741.006 156.816 740.473 157.36C739.95 157.893 739.689 158.635 739.689 159.584V164H738.553V155.584H739.641V157.136C739.95 156.624 740.377 156.229 740.921 155.952C741.475 155.664 742.115 155.52 742.841 155.52ZM756.74 160.144H749.7C749.764 161.019 750.1 161.728 750.708 162.272C751.316 162.805 752.084 163.072 753.012 163.072C753.535 163.072 754.015 162.981 754.452 162.8C754.889 162.608 755.268 162.331 755.588 161.968L756.228 162.704C755.855 163.152 755.385 163.493 754.82 163.728C754.265 163.963 753.652 164.08 752.98 164.08C752.116 164.08 751.348 163.899 750.676 163.536C750.015 163.163 749.497 162.651 749.124 162C748.751 161.349 748.564 160.613 748.564 159.792C748.564 158.971 748.74 158.235 749.092 157.584C749.455 156.933 749.945 156.427 750.564 156.064C751.193 155.701 751.897 155.52 752.676 155.52C753.455 155.52 754.153 155.701 754.772 156.064C755.391 156.427 755.876 156.933 756.228 157.584C756.58 158.224 756.756 158.96 756.756 159.792L756.74 160.144ZM752.676 156.496C751.865 156.496 751.183 156.757 750.628 157.28C750.084 157.792 749.775 158.464 749.7 159.296H755.668C755.593 158.464 755.279 157.792 754.724 157.28C754.18 156.757 753.497 156.496 752.676 156.496Z" fill="black"/>
<path fill-rule="evenodd" clip-rule="evenodd" d="M698.25 0C699.245 0 700.198 0.395088 700.902 1.09835C701.605 1.80161 702 2.75544 702 3.75V7.5H762V3.75C762 2.75544 762.395 1.80161 763.098 1.09835C763.802 0.395088 764.755 0 765.75 0C766.745 0 767.698 0.395088 768.402 1.09835C769.105 1.80161 769.5 2.75544 769.5 3.75V7.5H777C780.978 7.5 784.794 9.08035 787.607 11.8934C790.42 14.7064 792 18.5218 792 22.5V105C792 108.978 790.42 112.794 787.607 115.607C784.794 118.42 780.978 120 777 120H687C683.022 120 679.206 118.42 676.393 115.607C673.58 112.794 672 108.978 672 105V22.5C672 18.5218 673.58 14.7064 676.393 11.8934C679.206 9.08035 683.022 7.5 687 7.5H694.5V3.75C694.5 2.75544 694.895 1.80161 695.598 1.09835C696.302 0.395088 697.255 0 698.25 0V0ZM679.5 30V105C679.5 106.989 680.29 108.897 681.697 110.303C683.103 111.71 685.011 112.5 687 112.5H777C778.989 112.5 780.897 111.71 782.303 110.303C783.71 108.897 784.5 106.989 784.5 105V30H679.5Z" fill="#F77950"/>
<path fill-rule="evenodd" clip-rule="evenodd" d="M753.404 53.5944C753.753 53.9427 754.031 54.3565 754.22 54.8121C754.409 55.2677 754.506 55.7561 754.506 56.2494C754.506 56.7426 754.409 57.231 754.22 57.6866C754.031 58.1422 753.753 58.556 753.404 58.9044L730.904 81.4044C730.556 81.7536 730.142 82.0307 729.686 82.2197C729.231 82.4088 728.742 82.5061 728.249 82.5061C727.756 82.5061 727.268 82.4088 726.812 82.2197C726.356 82.0307 725.943 81.7536 725.594 81.4044L714.344 70.1544C713.996 69.8057 713.719 69.3918 713.53 68.9363C713.342 68.4807 713.245 67.9925 713.245 67.4994C713.245 67.0063 713.342 66.5181 713.53 66.0625C713.719 65.607 713.996 65.193 714.344 64.8444C715.048 64.1402 716.003 63.7446 716.999 63.7446C717.492 63.7446 717.981 63.8418 718.436 64.0305C718.892 64.2191 719.306 64.4957 719.654 64.8444L728.249 73.4469L748.094 53.5944C748.443 53.2452 748.856 52.9681 749.312 52.779C749.768 52.59 750.256 52.4927 750.749 52.4927C751.242 52.4927 751.731 52.59 752.186 52.779C752.642 52.9681 753.056 53.2452 753.404 53.5944Z" fill="#F77950"/>
<path d="M471.864 141.008H465.624L464.28 144H463.048L468.168 132.8H469.336L474.456 144H473.208L471.864 141.008ZM471.432 140.048L468.744 134.032L466.056 140.048H471.432ZM480.422 143.488C480.209 143.68 479.942 143.829 479.622 143.936C479.313 144.032 478.988 144.08 478.646 144.08C477.857 144.08 477.249 143.867 476.822 143.44C476.396 143.013 476.182 142.411 476.182 141.632V136.544H474.678V135.584H476.182V133.744H477.318V135.584H479.878V136.544H477.318V141.568C477.318 142.069 477.441 142.453 477.686 142.72C477.942 142.976 478.305 143.104 478.774 143.104C479.009 143.104 479.233 143.067 479.446 142.992C479.67 142.917 479.862 142.811 480.022 142.672L480.422 143.488ZM489.521 140.144H482.481C482.545 141.019 482.881 141.728 483.489 142.272C484.097 142.805 484.865 143.072 485.793 143.072C486.316 143.072 486.796 142.981 487.233 142.8C487.671 142.608 488.049 142.331 488.369 141.968L489.009 142.704C488.636 143.152 488.167 143.493 487.601 143.728C487.047 143.963 486.433 144.08 485.761 144.08C484.897 144.08 484.129 143.899 483.457 143.536C482.796 143.163 482.279 142.651 481.905 142C481.532 141.349 481.345 140.613 481.345 139.792C481.345 138.971 481.521 138.235 481.873 137.584C482.236 136.933 482.727 136.427 483.345 136.064C483.975 135.701 484.679 135.52 485.457 135.52C486.236 135.52 486.935 135.701 487.553 136.064C488.172 136.427 488.657 136.933 489.009 137.584C489.361 138.224 489.537 138.96 489.537 139.792L489.521 140.144ZM485.457 136.496C484.647 136.496 483.964 136.757 483.409 137.28C482.865 137.792 482.556 138.464 482.481 139.296H488.449C488.375 138.464 488.06 137.792 487.505 137.28C486.961 136.757 486.279 136.496 485.457 136.496ZM496.138 135.52C497.194 135.52 498.031 135.829 498.65 136.448C499.279 137.056 499.594 137.947 499.594 139.12V144H498.458V139.232C498.458 138.357 498.239 137.691 497.802 137.232C497.364 136.773 496.74 136.544 495.93 136.544C495.023 136.544 494.303 136.816 493.77 137.36C493.247 137.893 492.986 138.635 492.986 139.584V144H491.85V135.584H492.938V137.136C493.247 136.624 493.674 136.229 494.218 135.952C494.772 135.664 495.412 135.52 496.138 135.52ZM510.389 132.128V144H509.301V142.336C508.96 142.901 508.506 143.333 507.941 143.632C507.386 143.931 506.757 144.08 506.053 144.08C505.264 144.08 504.549 143.899 503.909 143.536C503.269 143.173 502.768 142.667 502.405 142.016C502.042 141.365 501.861 140.624 501.861 139.792C501.861 138.96 502.042 138.219 502.405 137.568C502.768 136.917 503.269 136.416 503.909 136.064C504.549 135.701 505.264 135.52 506.053 135.52C506.736 135.52 507.349 135.664 507.893 135.952C508.448 136.229 508.901 136.64 509.253 137.184V132.128H510.389ZM506.149 143.072C506.736 143.072 507.264 142.939 507.733 142.672C508.213 142.395 508.586 142.005 508.853 141.504C509.13 141.003 509.269 140.432 509.269 139.792C509.269 139.152 509.13 138.581 508.853 138.08C508.586 137.579 508.213 137.195 507.733 136.928C507.264 136.651 506.736 136.512 506.149 136.512C505.552 136.512 505.013 136.651 504.533 136.928C504.064 137.195 503.69 137.579 503.413 138.08C503.146 138.581 503.013 139.152 503.013 139.792C503.013 140.432 503.146 141.003 503.413 141.504C503.69 142.005 504.064 142.395 504.533 142.672C505.013 142.939 505.552 143.072 506.149 143.072ZM513.553 135.584H514.689V144H513.553V135.584ZM514.129 133.744C513.894 133.744 513.697 133.664 513.537 133.504C513.377 133.344 513.297 133.152 513.297 132.928C513.297 132.715 513.377 132.528 513.537 132.368C513.697 132.208 513.894 132.128 514.129 132.128C514.363 132.128 514.561 132.208 514.721 132.368C514.881 132.517 514.961 132.699 514.961 132.912C514.961 133.147 514.881 133.344 514.721 133.504C514.561 133.664 514.363 133.744 514.129 133.744ZM528.346 135.52C529.402 135.52 530.228 135.824 530.826 136.432C531.434 137.04 531.738 137.936 531.738 139.12V144H530.602V139.232C530.602 138.357 530.388 137.691 529.962 137.232C529.546 136.773 528.954 136.544 528.186 136.544C527.311 136.544 526.623 136.816 526.122 137.36C525.62 137.893 525.37 138.635 525.37 139.584V144H524.234V139.232C524.234 138.357 524.02 137.691 523.594 137.232C523.178 136.773 522.58 136.544 521.802 136.544C520.938 136.544 520.25 136.816 519.738 137.36C519.236 137.893 518.986 138.635 518.986 139.584V144H517.85V135.584H518.938V137.12C519.236 136.608 519.652 136.213 520.186 135.936C520.719 135.659 521.332 135.52 522.026 135.52C522.73 135.52 523.338 135.669 523.85 135.968C524.372 136.267 524.762 136.709 525.018 137.296C525.327 136.741 525.77 136.309 526.346 136C526.932 135.68 527.599 135.52 528.346 135.52ZM542.178 140.144H535.138C535.202 141.019 535.538 141.728 536.146 142.272C536.754 142.805 537.522 143.072 538.45 143.072C538.972 143.072 539.452 142.981 539.89 142.8C540.327 142.608 540.706 142.331 541.026 141.968L541.666 142.704C541.292 143.152 540.823 143.493 540.258 143.728C539.703 143.963 539.09 144.08 538.418 144.08C537.554 144.08 536.786 143.899 536.114 143.536C535.452 143.163 534.935 142.651 534.562 142C534.188 141.349 534.002 140.613 534.002 139.792C534.002 138.971 534.178 138.235 534.53 137.584C534.892 136.933 535.383 136.427 536.002 136.064C536.631 135.701 537.335 135.52 538.114 135.52C538.892 135.52 539.591 135.701 540.21 136.064C540.828 136.427 541.314 136.933 541.666 137.584C542.018 138.224 542.194 138.96 542.194 139.792L542.178 140.144ZM538.114 136.496C537.303 136.496 536.62 136.757 536.066 137.28C535.522 137.792 535.212 138.464 535.138 139.296H541.106C541.031 138.464 540.716 137.792 540.162 137.28C539.618 136.757 538.935 136.496 538.114 136.496ZM548.794 135.52C549.85 135.52 550.687 135.829 551.306 136.448C551.935 137.056 552.25 137.947 552.25 139.12V144H551.114V139.232C551.114 138.357 550.895 137.691 550.458 137.232C550.021 136.773 549.397 136.544 548.586 136.544C547.679 136.544 546.959 136.816 546.426 137.36C545.903 137.893 545.642 138.635 545.642 139.584V144H544.506V135.584H545.594V137.136C545.903 136.624 546.33 136.229 546.874 135.952C547.429 135.664 548.069 135.52 548.794 135.52ZM559.766 143.488C559.553 143.68 559.286 143.829 558.966 143.936C558.657 144.032 558.331 144.08 557.99 144.08C557.201 144.08 556.593 143.867 556.166 143.44C555.739 143.013 555.526 142.411 555.526 141.632V136.544H554.022V135.584H555.526V133.744H556.662V135.584H559.222V136.544H556.662V141.568C556.662 142.069 556.785 142.453 557.03 142.72C557.286 142.976 557.649 143.104 558.118 143.104C558.353 143.104 558.577 143.067 558.79 142.992C559.014 142.917 559.206 142.811 559.366 142.672L559.766 143.488ZM564.977 144.08C564.166 144.08 563.436 143.899 562.785 143.536C562.134 143.163 561.622 142.651 561.249 142C560.876 141.349 560.689 140.613 560.689 139.792C560.689 138.971 560.876 138.235 561.249 137.584C561.622 136.933 562.134 136.427 562.785 136.064C563.436 135.701 564.166 135.52 564.977 135.52C565.788 135.52 566.518 135.701 567.169 136.064C567.82 136.427 568.326 136.933 568.689 137.584C569.062 138.235 569.249 138.971 569.249 139.792C569.249 140.613 569.062 141.349 568.689 142C568.326 142.651 567.82 143.163 567.169 143.536C566.518 143.899 565.788 144.08 564.977 144.08ZM564.977 143.072C565.574 143.072 566.108 142.939 566.577 142.672C567.057 142.395 567.43 142.005 567.697 141.504C567.964 141.003 568.097 140.432 568.097 139.792C568.097 139.152 567.964 138.581 567.697 138.08C567.43 137.579 567.057 137.195 566.577 136.928C566.108 136.651 565.574 136.512 564.977 136.512C564.38 136.512 563.841 136.651 563.361 136.928C562.892 137.195 562.518 137.579 562.241 138.08C561.974 138.581 561.841 139.152 561.841 139.792C561.841 140.432 561.974 141.003 562.241 141.504C562.518 142.005 562.892 142.395 563.361 142.672C563.841 142.939 564.38 143.072 564.977 143.072ZM493.305 157.232C493.571 156.667 493.966 156.24 494.489 155.952C495.022 155.664 495.678 155.52 496.457 155.52V156.624L496.185 156.608C495.299 156.608 494.606 156.88 494.105 157.424C493.603 157.968 493.353 158.731 493.353 159.712V164H492.217V155.584H493.305V157.232ZM501.442 155.52C502.541 155.52 503.383 155.797 503.97 156.352C504.557 156.896 504.85 157.707 504.85 158.784V164H503.762V162.688C503.506 163.125 503.127 163.467 502.626 163.712C502.135 163.957 501.549 164.08 500.866 164.08C499.927 164.08 499.181 163.856 498.626 163.408C498.071 162.96 497.794 162.368 497.794 161.632C497.794 160.917 498.05 160.341 498.562 159.904C499.085 159.467 499.911 159.248 501.042 159.248H503.714V158.736C503.714 158.011 503.511 157.461 503.106 157.088C502.701 156.704 502.109 156.512 501.33 156.512C500.797 156.512 500.285 156.603 499.794 156.784C499.303 156.955 498.882 157.195 498.53 157.504L498.018 156.656C498.445 156.293 498.957 156.016 499.554 155.824C500.151 155.621 500.781 155.52 501.442 155.52ZM501.042 163.184C501.682 163.184 502.231 163.04 502.69 162.752C503.149 162.453 503.49 162.027 503.714 161.472V160.096H501.074C499.634 160.096 498.914 160.597 498.914 161.6C498.914 162.091 499.101 162.48 499.474 162.768C499.847 163.045 500.37 163.184 501.042 163.184ZM502.626 152.288H504.146L501.554 154.272H500.434L502.626 152.288ZM512.272 155.52C513.061 155.52 513.776 155.701 514.416 156.064C515.056 156.416 515.557 156.917 515.92 157.568C516.282 158.219 516.464 158.96 516.464 159.792C516.464 160.635 516.282 161.381 515.92 162.032C515.557 162.683 515.056 163.189 514.416 163.552C513.786 163.904 513.072 164.08 512.272 164.08C511.589 164.08 510.97 163.941 510.416 163.664C509.872 163.376 509.424 162.96 509.072 162.416V167.104H507.936V155.584H509.024V157.248C509.365 156.693 509.813 156.267 510.368 155.968C510.933 155.669 511.568 155.52 512.272 155.52ZM512.192 163.072C512.778 163.072 513.312 162.939 513.792 162.672C514.272 162.395 514.645 162.005 514.912 161.504C515.189 161.003 515.328 160.432 515.328 159.792C515.328 159.152 515.189 158.587 514.912 158.096C514.645 157.595 514.272 157.205 513.792 156.928C513.312 156.651 512.778 156.512 512.192 156.512C511.594 156.512 511.056 156.651 510.576 156.928C510.106 157.205 509.733 157.595 509.456 158.096C509.189 158.587 509.056 159.152 509.056 159.792C509.056 160.432 509.189 161.003 509.456 161.504C509.733 162.005 510.106 162.395 510.576 162.672C511.056 162.939 511.594 163.072 512.192 163.072ZM518.779 155.584H519.915V164H518.779V155.584ZM519.355 153.744C519.121 153.744 518.923 153.664 518.763 153.504C518.603 153.344 518.523 153.152 518.523 152.928C518.523 152.715 518.603 152.528 518.763 152.368C518.923 152.208 519.121 152.128 519.355 152.128C519.59 152.128 519.787 152.208 519.947 152.368C520.107 152.517 520.187 152.699 520.187 152.912C520.187 153.147 520.107 153.344 519.947 153.504C519.787 153.664 519.59 153.744 519.355 153.744ZM530.756 152.128V164H529.668V162.336C529.327 162.901 528.874 163.333 528.308 163.632C527.754 163.931 527.124 164.08 526.42 164.08C525.631 164.08 524.916 163.899 524.276 163.536C523.636 163.173 523.135 162.667 522.772 162.016C522.41 161.365 522.228 160.624 522.228 159.792C522.228 158.96 522.41 158.219 522.772 157.568C523.135 156.917 523.636 156.416 524.276 156.064C524.916 155.701 525.631 155.52 526.42 155.52C527.103 155.52 527.716 155.664 528.26 155.952C528.815 156.229 529.268 156.64 529.62 157.184V152.128H530.756ZM526.516 163.072C527.103 163.072 527.631 162.939 528.1 162.672C528.58 162.395 528.954 162.005 529.22 161.504C529.498 161.003 529.636 160.432 529.636 159.792C529.636 159.152 529.498 158.581 529.22 158.08C528.954 157.579 528.58 157.195 528.1 156.928C527.631 156.651 527.103 156.512 526.516 156.512C525.919 156.512 525.38 156.651 524.9 156.928C524.431 157.195 524.058 157.579 523.78 158.08C523.514 158.581 523.38 159.152 523.38 159.792C523.38 160.432 523.514 161.003 523.78 161.504C524.058 162.005 524.431 162.395 524.9 162.672C525.38 162.939 525.919 163.072 526.516 163.072ZM537.36 164.08C536.549 164.08 535.819 163.899 535.168 163.536C534.517 163.163 534.005 162.651 533.632 162C533.259 161.349 533.072 160.613 533.072 159.792C533.072 158.971 533.259 158.235 533.632 157.584C534.005 156.933 534.517 156.427 535.168 156.064C535.819 155.701 536.549 155.52 537.36 155.52C538.171 155.52 538.901 155.701 539.552 156.064C540.203 156.427 540.709 156.933 541.072 157.584C541.445 158.235 541.632 158.971 541.632 159.792C541.632 160.613 541.445 161.349 541.072 162C540.709 162.651 540.203 163.163 539.552 163.536C538.901 163.899 538.171 164.08 537.36 164.08ZM537.36 163.072C537.957 163.072 538.491 162.939 538.96 162.672C539.44 162.395 539.813 162.005 540.08 161.504C540.347 161.003 540.48 160.432 540.48 159.792C540.48 159.152 540.347 158.581 540.08 158.08C539.813 157.579 539.44 157.195 538.96 156.928C538.491 156.651 537.957 156.512 537.36 156.512C536.763 156.512 536.224 156.651 535.744 156.928C535.275 157.195 534.901 157.579 534.624 158.08C534.357 158.581 534.224 159.152 534.224 159.792C534.224 160.432 534.357 161.003 534.624 161.504C534.901 162.005 535.275 162.395 535.744 162.672C536.224 162.939 536.763 163.072 537.36 163.072Z" fill="black"/>
<path fill-rule="evenodd" clip-rule="evenodd" d="M474.75 112.5C473.755 112.5 472.802 112.105 472.098 111.402C471.395 110.698 471 109.745 471 108.75C471 107.755 471.395 106.802 472.098 106.098C472.802 105.395 473.755 105 474.75 105H482.25V97.5C482.248 91.1323 484.048 84.894 487.442 79.5058C490.835 74.1177 495.684 69.7994 501.428 67.05C503.603 66.0075 504.75 64.2225 504.75 62.625V57.375C504.75 55.7775 503.595 53.9925 501.428 52.95C495.684 50.2006 490.835 45.8823 487.442 40.4942C484.048 35.106 482.248 28.8677 482.25 22.5V15H474.75C473.755 15 472.802 14.6049 472.098 13.9017C471.395 13.1984 471 12.2446 471 11.25C471 10.2554 471.395 9.30161 472.098 8.59835C472.802 7.89509 473.755 7.5 474.75 7.5H557.25C558.245 7.5 559.198 7.89509 559.902 8.59835C560.605 9.30161 561 10.2554 561 11.25C561 12.2446 560.605 13.1984 559.902 13.9017C559.198 14.6049 558.245 15 557.25 15H549.75V22.5C549.752 28.8677 547.952 35.106 544.558 40.4942C541.165 45.8823 536.316 50.2006 530.572 52.95C528.397 53.9925 527.25 55.7775 527.25 57.375V62.625C527.25 64.2225 528.405 66.0075 530.572 67.05C536.316 69.7994 541.165 74.1177 544.558 79.5058C547.952 84.894 549.752 91.1323 549.75 97.5V105H557.25C558.245 105 559.198 105.395 559.902 106.098C560.605 106.802 561 107.755 561 108.75C561 109.745 560.605 110.698 559.902 111.402C559.198 112.105 558.245 112.5 557.25 112.5H474.75ZM489.75 15V22.5C489.75 26.5275 490.65 30.3375 492.278 33.75H539.723C541.342 30.3375 542.25 26.5275 542.25 22.5V15H489.75ZM512.25 62.625C512.25 67.8825 508.665 71.895 504.667 73.815C500.2 75.9533 496.428 79.3121 493.788 83.5033C491.149 87.6944 489.749 92.5469 489.75 97.5C489.75 97.5 496.245 87.7575 512.25 86.4V62.625ZM519.75 62.625C519.75 67.8825 523.335 71.895 527.332 73.815C531.8 75.9533 535.572 79.3121 538.212 83.5033C540.851 87.6944 542.251 92.5469 542.25 97.5C542.25 97.5 535.755 87.7575 519.75 86.4V62.625Z" fill="#F77950"/>
<path d="M263.403 132.8V144H262.235V138.832H255.227V144H254.043V132.8H255.227V137.792H262.235V132.8H263.403ZM266.818 135.584H267.954V144H266.818V135.584ZM267.394 133.744C267.16 133.744 266.962 133.664 266.802 133.504C266.642 133.344 266.562 133.152 266.562 132.928C266.562 132.715 266.642 132.528 266.802 132.368C266.962 132.208 267.16 132.128 267.394 132.128C267.629 132.128 267.826 132.208 267.986 132.368C268.146 132.517 268.226 132.699 268.226 132.912C268.226 133.147 268.146 133.344 267.986 133.504C267.826 133.664 267.629 133.744 267.394 133.744ZM273.371 144.08C272.689 144.08 272.033 143.984 271.403 143.792C270.785 143.589 270.299 143.339 269.947 143.04L270.459 142.144C270.811 142.421 271.254 142.651 271.787 142.832C272.321 143.003 272.875 143.088 273.451 143.088C274.219 143.088 274.785 142.971 275.147 142.736C275.521 142.491 275.707 142.149 275.707 141.712C275.707 141.403 275.606 141.163 275.403 140.992C275.201 140.811 274.945 140.677 274.635 140.592C274.326 140.496 273.915 140.405 273.403 140.32C272.721 140.192 272.171 140.064 271.755 139.936C271.339 139.797 270.982 139.568 270.683 139.248C270.395 138.928 270.251 138.485 270.251 137.92C270.251 137.216 270.545 136.64 271.131 136.192C271.718 135.744 272.534 135.52 273.579 135.52C274.123 135.52 274.667 135.595 275.211 135.744C275.755 135.883 276.203 136.069 276.555 136.304L276.059 137.216C275.366 136.736 274.539 136.496 273.579 136.496C272.854 136.496 272.305 136.624 271.931 136.88C271.569 137.136 271.387 137.472 271.387 137.888C271.387 138.208 271.489 138.464 271.691 138.656C271.905 138.848 272.166 138.992 272.475 139.088C272.785 139.173 273.211 139.264 273.755 139.36C274.427 139.488 274.966 139.616 275.371 139.744C275.777 139.872 276.123 140.091 276.411 140.4C276.699 140.709 276.843 141.136 276.843 141.68C276.843 142.416 276.534 143.003 275.915 143.44C275.307 143.867 274.459 144.08 273.371 144.08ZM283.375 143.488C283.162 143.68 282.895 143.829 282.575 143.936C282.266 144.032 281.941 144.08 281.599 144.08C280.81 144.08 280.202 143.867 279.775 143.44C279.349 143.013 279.135 142.411 279.135 141.632V136.544H277.631V135.584H279.135V133.744H280.271V135.584H282.831V136.544H280.271V141.568C280.271 142.069 280.394 142.453 280.639 142.72C280.895 142.976 281.258 143.104 281.727 143.104C281.962 143.104 282.186 143.067 282.399 142.992C282.623 142.917 282.815 142.811 282.975 142.672L283.375 143.488ZM288.587 144.08C287.776 144.08 287.045 143.899 286.395 143.536C285.744 143.163 285.232 142.651 284.859 142C284.485 141.349 284.299 140.613 284.299 139.792C284.299 138.971 284.485 138.235 284.859 137.584C285.232 136.933 285.744 136.427 286.395 136.064C287.045 135.701 287.776 135.52 288.587 135.52C289.397 135.52 290.128 135.701 290.779 136.064C291.429 136.427 291.936 136.933 292.299 137.584C292.672 138.235 292.859 138.971 292.859 139.792C292.859 140.613 292.672 141.349 292.299 142C291.936 142.651 291.429 143.163 290.779 143.536C290.128 143.899 289.397 144.08 288.587 144.08ZM288.587 143.072C289.184 143.072 289.717 142.939 290.187 142.672C290.667 142.395 291.04 142.005 291.307 141.504C291.573 141.003 291.707 140.432 291.707 139.792C291.707 139.152 291.573 138.581 291.307 138.08C291.04 137.579 290.667 137.195 290.187 136.928C289.717 136.651 289.184 136.512 288.587 136.512C287.989 136.512 287.451 136.651 286.971 136.928C286.501 137.195 286.128 137.579 285.851 138.08C285.584 138.581 285.451 139.152 285.451 139.792C285.451 140.432 285.584 141.003 285.851 141.504C286.128 142.005 286.501 142.395 286.971 142.672C287.451 142.939 287.989 143.072 288.587 143.072ZM289.723 132.288H291.243L288.651 134.272H287.531L289.723 132.288ZM296.266 137.232C296.532 136.667 296.927 136.24 297.45 135.952C297.983 135.664 298.639 135.52 299.418 135.52V136.624L299.146 136.608C298.26 136.608 297.567 136.88 297.066 137.424C296.564 137.968 296.314 138.731 296.314 139.712V144H295.178V135.584H296.266V137.232ZM301.475 135.584H302.611V144H301.475V135.584ZM302.051 133.744C301.816 133.744 301.619 133.664 301.459 133.504C301.299 133.344 301.219 133.152 301.219 132.928C301.219 132.715 301.299 132.528 301.459 132.368C301.619 132.208 301.816 132.128 302.051 132.128C302.285 132.128 302.483 132.208 302.643 132.368C302.803 132.517 302.883 132.699 302.883 132.912C302.883 133.147 302.803 133.344 302.643 133.504C302.483 133.664 302.285 133.744 302.051 133.744ZM309.26 144.08C308.428 144.08 307.681 143.899 307.02 143.536C306.369 143.173 305.857 142.667 305.484 142.016C305.11 141.355 304.924 140.613 304.924 139.792C304.924 138.971 305.11 138.235 305.484 137.584C305.857 136.933 306.369 136.427 307.02 136.064C307.681 135.701 308.428 135.52 309.26 135.52C309.985 135.52 310.63 135.664 311.196 135.952C311.772 136.229 312.225 136.64 312.556 137.184L311.708 137.76C311.43 137.344 311.078 137.035 310.652 136.832C310.225 136.619 309.761 136.512 309.26 136.512C308.652 136.512 308.102 136.651 307.612 136.928C307.132 137.195 306.753 137.579 306.476 138.08C306.209 138.581 306.076 139.152 306.076 139.792C306.076 140.443 306.209 141.019 306.476 141.52C306.753 142.011 307.132 142.395 307.612 142.672C308.102 142.939 308.652 143.072 309.26 143.072C309.761 143.072 310.225 142.971 310.652 142.768C311.078 142.565 311.43 142.256 311.708 141.84L312.556 142.416C312.225 142.96 311.772 143.376 311.196 143.664C310.62 143.941 309.974 144.08 309.26 144.08ZM318.087 144.08C317.276 144.08 316.545 143.899 315.895 143.536C315.244 143.163 314.732 142.651 314.359 142C313.985 141.349 313.799 140.613 313.799 139.792C313.799 138.971 313.985 138.235 314.359 137.584C314.732 136.933 315.244 136.427 315.895 136.064C316.545 135.701 317.276 135.52 318.087 135.52C318.897 135.52 319.628 135.701 320.279 136.064C320.929 136.427 321.436 136.933 321.799 137.584C322.172 138.235 322.359 138.971 322.359 139.792C322.359 140.613 322.172 141.349 321.799 142C321.436 142.651 320.929 143.163 320.279 143.536C319.628 143.899 318.897 144.08 318.087 144.08ZM318.087 143.072C318.684 143.072 319.217 142.939 319.687 142.672C320.167 142.395 320.54 142.005 320.807 141.504C321.073 141.003 321.207 140.432 321.207 139.792C321.207 139.152 321.073 138.581 320.807 138.08C320.54 137.579 320.167 137.195 319.687 136.928C319.217 136.651 318.684 136.512 318.087 136.512C317.489 136.512 316.951 136.651 316.471 136.928C316.001 137.195 315.628 137.579 315.351 138.08C315.084 138.581 314.951 139.152 314.951 139.792C314.951 140.432 315.084 141.003 315.351 141.504C315.628 142.005 316.001 142.395 316.471 142.672C316.951 142.939 317.489 143.072 318.087 143.072ZM336.545 132.128V144H335.457V142.336C335.116 142.901 334.663 143.333 334.097 143.632C333.543 143.931 332.913 144.08 332.209 144.08C331.42 144.08 330.705 143.899 330.065 143.536C329.425 143.173 328.924 142.667 328.561 142.016C328.199 141.365 328.017 140.624 328.017 139.792C328.017 138.96 328.199 138.219 328.561 137.568C328.924 136.917 329.425 136.416 330.065 136.064C330.705 135.701 331.42 135.52 332.209 135.52C332.892 135.52 333.505 135.664 334.049 135.952C334.604 136.229 335.057 136.64 335.409 137.184V132.128H336.545ZM332.305 143.072C332.892 143.072 333.42 142.939 333.889 142.672C334.369 142.395 334.743 142.005 335.009 141.504C335.287 141.003 335.425 140.432 335.425 139.792C335.425 139.152 335.287 138.581 335.009 138.08C334.743 137.579 334.369 137.195 333.889 136.928C333.42 136.651 332.892 136.512 332.305 136.512C331.708 136.512 331.169 136.651 330.689 136.928C330.22 137.195 329.847 137.579 329.569 138.08C329.303 138.581 329.169 139.152 329.169 139.792C329.169 140.432 329.303 141.003 329.569 141.504C329.847 142.005 330.22 142.395 330.689 142.672C331.169 142.939 331.708 143.072 332.305 143.072ZM347.037 140.144H339.997C340.061 141.019 340.397 141.728 341.005 142.272C341.613 142.805 342.381 143.072 343.309 143.072C343.832 143.072 344.312 142.981 344.749 142.8C345.186 142.608 345.565 142.331 345.885 141.968L346.525 142.704C346.152 143.152 345.682 143.493 345.117 143.728C344.562 143.963 343.949 144.08 343.277 144.08C342.413 144.08 341.645 143.899 340.973 143.536C340.312 143.163 339.794 142.651 339.421 142C339.048 141.349 338.861 140.613 338.861 139.792C338.861 138.971 339.037 138.235 339.389 137.584C339.752 136.933 340.242 136.427 340.861 136.064C341.49 135.701 342.194 135.52 342.973 135.52C343.752 135.52 344.45 135.701 345.069 136.064C345.688 136.427 346.173 136.933 346.525 137.584C346.877 138.224 347.053 138.96 347.053 139.792L347.037 140.144ZM342.973 136.496C342.162 136.496 341.48 136.757 340.925 137.28C340.381 137.792 340.072 138.464 339.997 139.296H345.965C345.89 138.464 345.576 137.792 345.021 137.28C344.477 136.757 343.794 136.496 342.973 136.496ZM267.045 155.52C267.834 155.52 268.549 155.701 269.189 156.064C269.829 156.416 270.33 156.917 270.693 157.568C271.056 158.219 271.237 158.96 271.237 159.792C271.237 160.635 271.056 161.381 270.693 162.032C270.33 162.683 269.829 163.189 269.189 163.552C268.56 163.904 267.845 164.08 267.045 164.08C266.362 164.08 265.744 163.941 265.189 163.664C264.645 163.376 264.197 162.96 263.845 162.416V167.104H262.709V155.584H263.797V157.248C264.138 156.693 264.586 156.267 265.141 155.968C265.706 155.669 266.341 155.52 267.045 155.52ZM266.965 163.072C267.552 163.072 268.085 162.939 268.565 162.672C269.045 162.395 269.418 162.005 269.685 161.504C269.962 161.003 270.101 160.432 270.101 159.792C270.101 159.152 269.962 158.587 269.685 158.096C269.418 157.595 269.045 157.205 268.565 156.928C268.085 156.651 267.552 156.512 266.965 156.512C266.368 156.512 265.829 156.651 265.349 156.928C264.88 157.205 264.506 157.595 264.229 158.096C263.962 158.587 263.829 159.152 263.829 159.792C263.829 160.432 263.962 161.003 264.229 161.504C264.506 162.005 264.88 162.395 265.349 162.672C265.829 162.939 266.368 163.072 266.965 163.072ZM276.45 155.52C277.549 155.52 278.391 155.797 278.978 156.352C279.565 156.896 279.858 157.707 279.858 158.784V164H278.77V162.688C278.514 163.125 278.135 163.467 277.634 163.712C277.143 163.957 276.557 164.08 275.874 164.08C274.935 164.08 274.189 163.856 273.634 163.408C273.079 162.96 272.802 162.368 272.802 161.632C272.802 160.917 273.058 160.341 273.57 159.904C274.093 159.467 274.919 159.248 276.05 159.248H278.722V158.736C278.722 158.011 278.519 157.461 278.114 157.088C277.709 156.704 277.117 156.512 276.338 156.512C275.805 156.512 275.293 156.603 274.802 156.784C274.311 156.955 273.89 157.195 273.538 157.504L273.026 156.656C273.453 156.293 273.965 156.016 274.562 155.824C275.159 155.621 275.789 155.52 276.45 155.52ZM276.05 163.184C276.69 163.184 277.239 163.04 277.698 162.752C278.157 162.453 278.498 162.027 278.722 161.472V160.096H276.082C274.642 160.096 273.922 160.597 273.922 161.6C273.922 162.091 274.109 162.48 274.482 162.768C274.855 163.045 275.378 163.184 276.05 163.184ZM286.463 164.08C285.631 164.08 284.884 163.899 284.223 163.536C283.572 163.173 283.06 162.667 282.687 162.016C282.313 161.355 282.127 160.613 282.127 159.792C282.127 158.971 282.313 158.235 282.687 157.584C283.06 156.933 283.572 156.427 284.223 156.064C284.884 155.701 285.631 155.52 286.463 155.52C287.188 155.52 287.833 155.664 288.399 155.952C288.975 156.229 289.428 156.64 289.759 157.184L288.911 157.76C288.633 157.344 288.281 157.035 287.855 156.832C287.428 156.619 286.964 156.512 286.463 156.512C285.855 156.512 285.305 156.651 284.815 156.928C284.335 157.195 283.956 157.579 283.679 158.08C283.412 158.581 283.279 159.152 283.279 159.792C283.279 160.443 283.412 161.019 283.679 161.52C283.956 162.011 284.335 162.395 284.815 162.672C285.305 162.939 285.855 163.072 286.463 163.072C286.964 163.072 287.428 162.971 287.855 162.768C288.281 162.565 288.633 162.256 288.911 161.84L289.759 162.416C289.428 162.96 288.975 163.376 288.399 163.664C287.823 163.941 287.177 164.08 286.463 164.08ZM291.99 155.584H293.126V164H291.99V155.584ZM292.566 153.744C292.332 153.744 292.134 153.664 291.974 153.504C291.814 153.344 291.734 153.152 291.734 152.928C291.734 152.715 291.814 152.528 291.974 152.368C292.134 152.208 292.332 152.128 292.566 152.128C292.801 152.128 292.998 152.208 293.158 152.368C293.318 152.517 293.398 152.699 293.398 152.912C293.398 153.147 293.318 153.344 293.158 153.504C292.998 153.664 292.801 153.744 292.566 153.744ZM303.615 160.144H296.575C296.639 161.019 296.975 161.728 297.583 162.272C298.191 162.805 298.959 163.072 299.887 163.072C300.41 163.072 300.89 162.981 301.327 162.8C301.764 162.608 302.143 162.331 302.463 161.968L303.103 162.704C302.73 163.152 302.26 163.493 301.695 163.728C301.14 163.963 300.527 164.08 299.855 164.08C298.991 164.08 298.223 163.899 297.551 163.536C296.89 163.163 296.372 162.651 295.999 162C295.626 161.349 295.439 160.613 295.439 159.792C295.439 158.971 295.615 158.235 295.967 157.584C296.33 156.933 296.82 156.427 297.439 156.064C298.068 155.701 298.772 155.52 299.551 155.52C300.33 155.52 301.028 155.701 301.647 156.064C302.266 156.427 302.751 156.933 303.103 157.584C303.455 158.224 303.631 158.96 303.631 159.792L303.615 160.144ZM299.551 156.496C298.74 156.496 298.058 156.757 297.503 157.28C296.959 157.792 296.65 158.464 296.575 159.296H302.543C302.468 158.464 302.154 157.792 301.599 157.28C301.055 156.757 300.372 156.496 299.551 156.496ZM310.231 155.52C311.287 155.52 312.125 155.829 312.743 156.448C313.373 157.056 313.687 157.947 313.687 159.12V164H312.551V159.232C312.551 158.357 312.333 157.691 311.895 157.232C311.458 156.773 310.834 156.544 310.023 156.544C309.117 156.544 308.397 156.816 307.863 157.36C307.341 157.893 307.079 158.635 307.079 159.584V164H305.943V155.584H307.031V157.136C307.341 156.624 307.767 156.229 308.311 155.952C308.866 155.664 309.506 155.52 310.231 155.52ZM321.204 163.488C320.99 163.68 320.724 163.829 320.404 163.936C320.094 164.032 319.769 164.08 319.428 164.08C318.638 164.08 318.03 163.867 317.604 163.44C317.177 163.013 316.964 162.411 316.964 161.632V156.544H315.46V155.584H316.964V153.744H318.1V155.584H320.66V156.544H318.1V161.568C318.1 162.069 318.222 162.453 318.468 162.72C318.724 162.976 319.086 163.104 319.556 163.104C319.79 163.104 320.014 163.067 320.228 162.992C320.452 162.917 320.644 162.811 320.804 162.672L321.204 163.488ZM330.303 160.144H323.263C323.327 161.019 323.663 161.728 324.271 162.272C324.879 162.805 325.647 163.072 326.575 163.072C327.097 163.072 327.577 162.981 328.015 162.8C328.452 162.608 328.831 162.331 329.151 161.968L329.791 162.704C329.417 163.152 328.948 163.493 328.383 163.728C327.828 163.963 327.215 164.08 326.543 164.08C325.679 164.08 324.911 163.899 324.239 163.536C323.577 163.163 323.06 162.651 322.687 162C322.313 161.349 322.127 160.613 322.127 159.792C322.127 158.971 322.303 158.235 322.655 157.584C323.017 156.933 323.508 156.427 324.127 156.064C324.756 155.701 325.46 155.52 326.239 155.52C327.017 155.52 327.716 155.701 328.335 156.064C328.953 156.427 329.439 156.933 329.791 157.584C330.143 158.224 330.319 158.96 330.319 159.792L330.303 160.144ZM326.239 156.496C325.428 156.496 324.745 156.757 324.191 157.28C323.647 157.792 323.337 158.464 323.263 159.296H329.231C329.156 158.464 328.841 157.792 328.287 157.28C327.743 156.757 327.06 156.496 326.239 156.496ZM334.887 164.08C334.204 164.08 333.548 163.984 332.919 163.792C332.3 163.589 331.815 163.339 331.463 163.04L331.975 162.144C332.327 162.421 332.77 162.651 333.303 162.832C333.836 163.003 334.391 163.088 334.967 163.088C335.735 163.088 336.3 162.971 336.663 162.736C337.036 162.491 337.223 162.149 337.223 161.712C337.223 161.403 337.122 161.163 336.919 160.992C336.716 160.811 336.46 160.677 336.151 160.592C335.842 160.496 335.431 160.405 334.919 160.32C334.236 160.192 333.687 160.064 333.271 159.936C332.855 159.797 332.498 159.568 332.199 159.248C331.911 158.928 331.767 158.485 331.767 157.92C331.767 157.216 332.06 156.64 332.647 156.192C333.234 155.744 334.05 155.52 335.095 155.52C335.639 155.52 336.183 155.595 336.727 155.744C337.271 155.883 337.719 156.069 338.071 156.304L337.575 157.216C336.882 156.736 336.055 156.496 335.095 156.496C334.37 156.496 333.82 156.624 333.447 156.88C333.084 157.136 332.903 157.472 332.903 157.888C332.903 158.208 333.004 158.464 333.207 158.656C333.42 158.848 333.682 158.992 333.991 159.088C334.3 159.173 334.727 159.264 335.271 159.36C335.943 159.488 336.482 159.616 336.887 159.744C337.292 159.872 337.639 160.091 337.927 160.4C338.215 160.709 338.359 161.136 338.359 161.68C338.359 162.416 338.05 163.003 337.431 163.44C336.823 163.867 335.975 164.08 334.887 164.08Z" fill="black"/>
<g clip-path="url(#clip1)">
<path fill-rule="evenodd" clip-rule="evenodd" d="M334.822 112.5C344.842 112.5 352.5 103.838 352.5 93.75V37.5H247.5V93.75C247.5 103.838 255.158 112.5 265.178 112.5H334.822ZM281.25 52.5C280.255 52.5 279.302 52.8951 278.598 53.5984C277.895 54.3016 277.5 55.2554 277.5 56.25C277.5 57.2446 277.895 58.1984 278.598 58.9016C279.302 59.6049 280.255 60 281.25 60H318.75C319.745 60 320.698 59.6049 321.402 58.9016C322.105 58.1984 322.5 57.2446 322.5 56.25C322.5 55.2554 322.105 54.3016 321.402 53.5984C320.698 52.8951 319.745 52.5 318.75 52.5H281.25ZM246 7.5C244.409 7.5 242.883 8.13214 241.757 9.25736C240.632 10.3826 240 11.9087 240 13.5V22.5C240 24.0913 240.632 25.6174 241.757 26.7426C242.883 27.8679 244.409 28.5 246 28.5H354C355.591 28.5 357.117 27.8679 358.243 26.7426C359.368 25.6174 360 24.0913 360 22.5V13.5C360 11.9087 359.368 10.3826 358.243 9.25736C357.117 8.13214 355.591 7.5 354 7.5H246Z" fill="#F77950"/>
</g>
<path d="M40.141 132.8C41.5703 132.8 42.6903 133.141 43.501 133.824C44.3117 134.507 44.717 135.445 44.717 136.64C44.717 137.835 44.3117 138.773 43.501 139.456C42.6903 140.128 41.5703 140.464 40.141 140.464H37.133V144H35.949V132.8H40.141ZM40.109 139.424C41.2183 139.424 42.0663 139.184 42.653 138.704C43.2397 138.213 43.533 137.525 43.533 136.64C43.533 135.733 43.2397 135.04 42.653 134.56C42.0663 134.069 41.2183 133.824 40.109 133.824H37.133V139.424H40.109ZM47.9064 137.232C48.173 136.667 48.5677 136.24 49.0904 135.952C49.6237 135.664 50.2797 135.52 51.0584 135.52V136.624L50.7864 136.608C49.901 136.608 49.2077 136.88 48.7064 137.424C48.205 137.968 47.9544 138.731 47.9544 139.712V144H46.8184V135.584H47.9064V137.232ZM56.4771 144.08C55.6665 144.08 54.9358 143.899 54.2851 143.536C53.6345 143.163 53.1225 142.651 52.7491 142C52.3758 141.349 52.1891 140.613 52.1891 139.792C52.1891 138.971 52.3758 138.235 52.7491 137.584C53.1225 136.933 53.6345 136.427 54.2851 136.064C54.9358 135.701 55.6665 135.52 56.4771 135.52C57.2878 135.52 58.0185 135.701 58.6691 136.064C59.3198 136.427 59.8265 136.933 60.1891 137.584C60.5625 138.235 60.7491 138.971 60.7491 139.792C60.7491 140.613 60.5625 141.349 60.1891 142C59.8265 142.651 59.3198 143.163 58.6691 143.536C58.0185 143.899 57.2878 144.08 56.4771 144.08ZM56.4771 143.072C57.0745 143.072 57.6078 142.939 58.0771 142.672C58.5571 142.395 58.9305 142.005 59.1971 141.504C59.4638 141.003 59.5971 140.432 59.5971 139.792C59.5971 139.152 59.4638 138.581 59.1971 138.08C58.9305 137.579 58.5571 137.195 58.0771 136.928C57.6078 136.651 57.0745 136.512 56.4771 136.512C55.8798 136.512 55.3411 136.651 54.8611 136.928C54.3918 137.195 54.0185 137.579 53.7411 138.08C53.4745 138.581 53.3411 139.152 53.3411 139.792C53.3411 140.432 53.4745 141.003 53.7411 141.504C54.0185 142.005 54.3918 142.395 54.8611 142.672C55.3411 142.939 55.8798 143.072 56.4771 143.072ZM65.8524 133.008C65.3617 133.008 64.9884 133.141 64.7324 133.408C64.487 133.675 64.3644 134.069 64.3644 134.592V135.584H66.9564V136.544H64.3964V144H63.2604V136.544H61.7564V135.584H63.2604V134.544C63.2604 133.776 63.479 133.168 63.9164 132.72C64.3644 132.272 64.9937 132.048 65.8044 132.048C66.1244 132.048 66.4337 132.096 66.7324 132.192C67.031 132.277 67.2817 132.405 67.4844 132.576L67.1004 133.424C66.7697 133.147 66.3537 133.008 65.8524 133.008ZM69.7724 135.584H70.9084V144H69.7724V135.584ZM70.3484 133.744C70.1137 133.744 69.9164 133.664 69.7564 133.504C69.5964 133.344 69.5164 133.152 69.5164 132.928C69.5164 132.715 69.5964 132.528 69.7564 132.368C69.9164 132.208 70.1137 132.128 70.3484 132.128C70.583 132.128 70.7804 132.208 70.9404 132.368C71.1004 132.517 71.1804 132.699 71.1804 132.912C71.1804 133.147 71.1004 133.344 70.9404 133.504C70.7804 133.664 70.583 133.744 70.3484 133.744ZM76.34 144.08C75.6573 144.08 75.0013 143.984 74.372 143.792C73.7533 143.589 73.268 143.339 72.916 143.04L73.428 142.144C73.78 142.421 74.2227 142.651 74.756 142.832C75.2893 143.003 75.844 143.088 76.42 143.088C77.188 143.088 77.7533 142.971 78.116 142.736C78.4893 142.491 78.676 142.149 78.676 141.712C78.676 141.403 78.5747 141.163 78.372 140.992C78.1693 140.811 77.9133 140.677 77.604 140.592C77.2947 140.496 76.884 140.405 76.372 140.32C75.6893 140.192 75.14 140.064 74.724 139.936C74.308 139.797 73.9507 139.568 73.652 139.248C73.364 138.928 73.22 138.485 73.22 137.92C73.22 137.216 73.5133 136.64 74.1 136.192C74.6867 135.744 75.5027 135.52 76.548 135.52C77.092 135.52 77.636 135.595 78.18 135.744C78.724 135.883 79.172 136.069 79.524 136.304L79.028 137.216C78.3347 136.736 77.508 136.496 76.548 136.496C75.8227 136.496 75.2733 136.624 74.9 136.88C74.5373 137.136 74.356 137.472 74.356 137.888C74.356 138.208 74.4573 138.464 74.66 138.656C74.8733 138.848 75.1347 138.992 75.444 139.088C75.7533 139.173 76.18 139.264 76.724 139.36C77.396 139.488 77.9347 139.616 78.34 139.744C78.7453 139.872 79.092 140.091 79.38 140.4C79.668 140.709 79.812 141.136 79.812 141.68C79.812 142.416 79.5027 143.003 78.884 143.44C78.276 143.867 77.428 144.08 76.34 144.08ZM84.1681 144.08C83.4855 144.08 82.8295 143.984 82.2001 143.792C81.5815 143.589 81.0961 143.339 80.7441 143.04L81.2561 142.144C81.6081 142.421 82.0508 142.651 82.5841 142.832C83.1175 143.003 83.6721 143.088 84.2481 143.088C85.0161 143.088 85.5815 142.971 85.9441 142.736C86.3175 142.491 86.5041 142.149 86.5041 141.712C86.5041 141.403 86.4028 141.163 86.2001 140.992C85.9975 140.811 85.7415 140.677 85.4321 140.592C85.1228 140.496 84.7121 140.405 84.2001 140.32C83.5175 140.192 82.9681 140.064 82.5521 139.936C82.1361 139.797 81.7788 139.568 81.4801 139.248C81.1921 138.928 81.0481 138.485 81.0481 137.92C81.0481 137.216 81.3415 136.64 81.9281 136.192C82.5148 135.744 83.3308 135.52 84.3761 135.52C84.9201 135.52 85.4641 135.595 86.0081 135.744C86.5521 135.883 87.0001 136.069 87.3521 136.304L86.8561 137.216C86.1628 136.736 85.3361 136.496 84.3761 136.496C83.6508 136.496 83.1015 136.624 82.7281 136.88C82.3655 137.136 82.1841 137.472 82.1841 137.888C82.1841 138.208 82.2855 138.464 82.4881 138.656C82.7015 138.848 82.9628 138.992 83.2721 139.088C83.5815 139.173 84.0081 139.264 84.5521 139.36C85.2241 139.488 85.7628 139.616 86.1681 139.744C86.5735 139.872 86.9201 140.091 87.2081 140.4C87.4961 140.709 87.6401 141.136 87.6401 141.68C87.6401 142.416 87.3308 143.003 86.7121 143.44C86.1041 143.867 85.2561 144.08 84.1681 144.08ZM89.7403 135.584H90.8763V144H89.7403V135.584ZM90.3163 133.744C90.0816 133.744 89.8843 133.664 89.7243 133.504C89.5643 133.344 89.4843 133.152 89.4843 132.928C89.4843 132.715 89.5643 132.528 89.7243 132.368C89.8843 132.208 90.0816 132.128 90.3163 132.128C90.5509 132.128 90.7483 132.208 90.9083 132.368C91.0683 132.517 91.1483 132.699 91.1483 132.912C91.1483 133.147 91.0683 133.344 90.9083 133.504C90.7483 133.664 90.5509 133.744 90.3163 133.744ZM97.4771 144.08C96.6665 144.08 95.9358 143.899 95.2851 143.536C94.6345 143.163 94.1225 142.651 93.7491 142C93.3758 141.349 93.1891 140.613 93.1891 139.792C93.1891 138.971 93.3758 138.235 93.7491 137.584C94.1225 136.933 94.6345 136.427 95.2851 136.064C95.9358 135.701 96.6665 135.52 97.4771 135.52C98.2878 135.52 99.0185 135.701 99.6691 136.064C100.32 136.427 100.826 136.933 101.189 137.584C101.562 138.235 101.749 138.971 101.749 139.792C101.749 140.613 101.562 141.349 101.189 142C100.826 142.651 100.32 143.163 99.6691 143.536C99.0185 143.899 98.2878 144.08 97.4771 144.08ZM97.4771 143.072C98.0745 143.072 98.6078 142.939 99.0771 142.672C99.5571 142.395 99.9305 142.005 100.197 141.504C100.464 141.003 100.597 140.432 100.597 139.792C100.597 139.152 100.464 138.581 100.197 138.08C99.9305 137.579 99.5571 137.195 99.0771 136.928C98.6078 136.651 98.0745 136.512 97.4771 136.512C96.8798 136.512 96.3411 136.651 95.8611 136.928C95.3918 137.195 95.0185 137.579 94.7411 138.08C94.4745 138.581 94.3411 139.152 94.3411 139.792C94.3411 140.432 94.4745 141.003 94.7411 141.504C95.0185 142.005 95.3918 142.395 95.8611 142.672C96.3411 142.939 96.8798 143.072 97.4771 143.072ZM108.356 135.52C109.412 135.52 110.25 135.829 110.868 136.448C111.498 137.056 111.812 137.947 111.812 139.12V144H110.676V139.232C110.676 138.357 110.458 137.691 110.02 137.232C109.583 136.773 108.959 136.544 108.148 136.544C107.242 136.544 106.522 136.816 105.988 137.36C105.466 137.893 105.204 138.635 105.204 139.584V144H104.068V135.584H105.156V137.136C105.466 136.624 105.892 136.229 106.436 135.952C106.991 135.664 107.631 135.52 108.356 135.52ZM117.841 135.52C118.939 135.52 119.782 135.797 120.369 136.352C120.955 136.896 121.249 137.707 121.249 138.784V144H120.161V142.688C119.905 143.125 119.526 143.467 119.025 143.712C118.534 143.957 117.947 144.08 117.265 144.08C116.326 144.08 115.579 143.856 115.025 143.408C114.47 142.96 114.193 142.368 114.193 141.632C114.193 140.917 114.449 140.341 114.961 139.904C115.483 139.467 116.31 139.248 117.441 139.248H120.113V138.736C120.113 138.011 119.91 137.461 119.505 137.088C119.099 136.704 118.507 136.512 117.729 136.512C117.195 136.512 116.683 136.603 116.193 136.784C115.702 136.955 115.281 137.195 114.929 137.504L114.417 136.656C114.843 136.293 115.355 136.016 115.953 135.824C116.55 135.621 117.179 135.52 117.841 135.52ZM117.441 143.184C118.081 143.184 118.63 143.04 119.089 142.752C119.547 142.453 119.889 142.027 120.113 141.472V140.096H117.473C116.033 140.096 115.312 140.597 115.312 141.6C115.312 142.091 115.499 142.48 115.873 142.768C116.246 143.045 116.769 143.184 117.441 143.184ZM124.334 135.584H125.47V144H124.334V135.584ZM124.91 133.744C124.675 133.744 124.478 133.664 124.318 133.504C124.158 133.344 124.078 133.152 124.078 132.928C124.078 132.715 124.158 132.528 124.318 132.368C124.478 132.208 124.675 132.128 124.91 132.128C125.145 132.128 125.342 132.208 125.502 132.368C125.662 132.517 125.742 132.699 125.742 132.912C125.742 133.147 125.662 133.344 125.502 133.504C125.342 133.664 125.145 133.744 124.91 133.744ZM130.887 144.08C130.204 144.08 129.548 143.984 128.919 143.792C128.3 143.589 127.815 143.339 127.463 143.04L127.975 142.144C128.327 142.421 128.77 142.651 129.303 142.832C129.836 143.003 130.391 143.088 130.967 143.088C131.735 143.088 132.3 142.971 132.663 142.736C133.036 142.491 133.223 142.149 133.223 141.712C133.223 141.403 133.122 141.163 132.919 140.992C132.716 140.811 132.46 140.677 132.151 140.592C131.842 140.496 131.431 140.405 130.919 140.32C130.236 140.192 129.687 140.064 129.271 139.936C128.855 139.797 128.498 139.568 128.199 139.248C127.911 138.928 127.767 138.485 127.767 137.92C127.767 137.216 128.06 136.64 128.647 136.192C129.234 135.744 130.05 135.52 131.095 135.52C131.639 135.52 132.183 135.595 132.727 135.744C133.271 135.883 133.719 136.069 134.071 136.304L133.575 137.216C132.882 136.736 132.055 136.496 131.095 136.496C130.37 136.496 129.82 136.624 129.447 136.88C129.084 137.136 128.903 137.472 128.903 137.888C128.903 138.208 129.004 138.464 129.207 138.656C129.42 138.848 129.682 138.992 129.991 139.088C130.3 139.173 130.727 139.264 131.271 139.36C131.943 139.488 132.482 139.616 132.887 139.744C133.292 139.872 133.639 140.091 133.927 140.4C134.215 140.709 134.359 141.136 134.359 141.68C134.359 142.416 134.05 143.003 133.431 143.44C132.823 143.867 131.975 144.08 130.887 144.08ZM42.4783 164.08C41.6463 164.08 40.8996 163.899 40.2383 163.536C39.5876 163.173 39.0756 162.667 38.7023 162.016C38.3289 161.355 38.1423 160.613 38.1423 159.792C38.1423 158.971 38.3289 158.235 38.7023 157.584C39.0756 156.933 39.5876 156.427 40.2383 156.064C40.8996 155.701 41.6463 155.52 42.4783 155.52C43.2036 155.52 43.8489 155.664 44.4143 155.952C44.9903 156.229 45.4436 156.64 45.7743 157.184L44.9263 157.76C44.6489 157.344 44.2969 157.035 43.8703 156.832C43.4436 156.619 42.9796 156.512 42.4783 156.512C41.8703 156.512 41.3209 156.651 40.8303 156.928C40.3503 157.195 39.9716 157.579 39.6943 158.08C39.4276 158.581 39.2943 159.152 39.2943 159.792C39.2943 160.443 39.4276 161.019 39.6943 161.52C39.9716 162.011 40.3503 162.395 40.8303 162.672C41.3209 162.939 41.8703 163.072 42.4783 163.072C42.9796 163.072 43.4436 162.971 43.8703 162.768C44.2969 162.565 44.6489 162.256 44.9263 161.84L45.7743 162.416C45.4436 162.96 44.9903 163.376 44.4143 163.664C43.8383 163.941 43.1929 164.08 42.4783 164.08ZM55.1933 160.144H48.1533C48.2173 161.019 48.5533 161.728 49.1613 162.272C49.7693 162.805 50.5373 163.072 51.4653 163.072C51.9879 163.072 52.4679 162.981 52.9053 162.8C53.3426 162.608 53.7213 162.331 54.0413 161.968L54.6813 162.704C54.3079 163.152 53.8386 163.493 53.2733 163.728C52.7186 163.963 52.1053 164.08 51.4333 164.08C50.5693 164.08 49.8013 163.899 49.1293 163.536C48.4679 163.163 47.9506 162.651 47.5773 162C47.2039 161.349 47.0173 160.613 47.0173 159.792C47.0173 158.971 47.1933 158.235 47.5453 157.584C47.9079 156.933 48.3986 156.427 49.0173 156.064C49.6466 155.701 50.3506 155.52 51.1293 155.52C51.9079 155.52 52.6066 155.701 53.2253 156.064C53.8439 156.427 54.3293 156.933 54.6813 157.584C55.0333 158.224 55.2093 158.96 55.2093 159.792L55.1933 160.144ZM51.1293 156.496C50.3186 156.496 49.6359 156.757 49.0813 157.28C48.5373 157.792 48.2279 158.464 48.1533 159.296H54.1213C54.0466 158.464 53.7319 157.792 53.1773 157.28C52.6333 156.757 51.9506 156.496 51.1293 156.496ZM58.6095 157.232C58.8762 156.667 59.2708 156.24 59.7935 155.952C60.3268 155.664 60.9828 155.52 61.7615 155.52V156.624L61.4895 156.608C60.6042 156.608 59.9108 156.88 59.4095 157.424C58.9082 157.968 58.6575 158.731 58.6575 159.712V164H57.5215V155.584H58.6095V157.232ZM68.6098 163.488C68.3964 163.68 68.1298 163.829 67.8098 163.936C67.5004 164.032 67.1751 164.08 66.8338 164.08C66.0444 164.08 65.4364 163.867 65.0098 163.44C64.5831 163.013 64.3698 162.411 64.3698 161.632V156.544H62.8658V155.584H64.3698V153.744H65.5058V155.584H68.0658V156.544H65.5058V161.568C65.5058 162.069 65.6284 162.453 65.8738 162.72C66.1298 162.976 66.4924 163.104 66.9618 163.104C67.1964 163.104 67.4204 163.067 67.6338 162.992C67.8578 162.917 68.0498 162.811 68.2098 162.672L68.6098 163.488ZM70.6778 155.584H71.8138V164H70.6778V155.584ZM71.2538 153.744C71.0191 153.744 70.8218 153.664 70.6618 153.504C70.5018 153.344 70.4218 153.152 70.4218 152.928C70.4218 152.715 70.5018 152.528 70.6618 152.368C70.8218 152.208 71.0191 152.128 71.2538 152.128C71.4884 152.128 71.6858 152.208 71.8458 152.368C72.0058 152.517 72.0858 152.699 72.0858 152.912C72.0858 153.147 72.0058 153.344 71.8458 153.504C71.6858 153.664 71.4884 153.744 71.2538 153.744ZM77.7586 153.008C77.268 153.008 76.8946 153.141 76.6386 153.408C76.3933 153.675 76.2706 154.069 76.2706 154.592V155.584H78.8626V156.544H76.3026V164H75.1666V156.544H73.6626V155.584H75.1666V154.544C75.1666 153.776 75.3853 153.168 75.8226 152.72C76.2706 152.272 76.9 152.048 77.7106 152.048C78.0306 152.048 78.34 152.096 78.6386 152.192C78.9373 152.277 79.188 152.405 79.3906 152.576L79.0066 153.424C78.676 153.147 78.26 153.008 77.7586 153.008ZM81.6786 155.584H82.8146V164H81.6786V155.584ZM82.2546 153.744C82.02 153.744 81.8226 153.664 81.6626 153.504C81.5026 153.344 81.4226 153.152 81.4226 152.928C81.4226 152.715 81.5026 152.528 81.6626 152.368C81.8226 152.208 82.02 152.128 82.2546 152.128C82.4893 152.128 82.6866 152.208 82.8466 152.368C83.0066 152.517 83.0866 152.699 83.0866 152.912C83.0866 153.147 83.0066 153.344 82.8466 153.504C82.6866 153.664 82.4893 153.744 82.2546 153.744ZM89.4783 164.08C88.6463 164.08 87.8996 163.899 87.2383 163.536C86.5876 163.173 86.0756 162.667 85.7023 162.016C85.3289 161.355 85.1423 160.613 85.1423 159.792C85.1423 158.971 85.3289 158.235 85.7023 157.584C86.0756 156.933 86.5876 156.427 87.2383 156.064C87.8996 155.701 88.6463 155.52 89.4783 155.52C90.2036 155.52 90.8489 155.664 91.4143 155.952C91.9903 156.229 92.4436 156.64 92.7743 157.184L91.9263 157.76C91.6489 157.344 91.2969 157.035 90.8703 156.832C90.4436 156.619 89.9796 156.512 89.4783 156.512C88.8703 156.512 88.3209 156.651 87.8303 156.928C87.3503 157.195 86.9716 157.579 86.6943 158.08C86.4276 158.581 86.2943 159.152 86.2943 159.792C86.2943 160.443 86.4276 161.019 86.6943 161.52C86.9716 162.011 87.3503 162.395 87.8303 162.672C88.3209 162.939 88.8703 163.072 89.4783 163.072C89.9796 163.072 90.4436 162.971 90.8703 162.768C91.2969 162.565 91.6489 162.256 91.9263 161.84L92.7743 162.416C92.4436 162.96 91.9903 163.376 91.4143 163.664C90.8383 163.941 90.1929 164.08 89.4783 164.08ZM97.9499 155.52C99.0485 155.52 99.8912 155.797 100.478 156.352C101.065 156.896 101.358 157.707 101.358 158.784V164H100.27V162.688C100.014 163.125 99.6352 163.467 99.1339 163.712C98.6432 163.957 98.0565 164.08 97.3739 164.08C96.4352 164.08 95.6885 163.856 95.1339 163.408C94.5792 162.96 94.3019 162.368 94.3019 161.632C94.3019 160.917 94.5579 160.341 95.0699 159.904C95.5925 159.467 96.4192 159.248 97.5499 159.248H100.222V158.736C100.222 158.011 100.019 157.461 99.6139 157.088C99.2085 156.704 98.6165 156.512 97.8379 156.512C97.3045 156.512 96.7925 156.603 96.3019 156.784C95.8112 156.955 95.3899 157.195 95.0379 157.504L94.5259 156.656C94.9525 156.293 95.4645 156.016 96.0619 155.824C96.6592 155.621 97.2885 155.52 97.9499 155.52ZM97.5499 163.184C98.1899 163.184 98.7392 163.04 99.1979 162.752C99.6565 162.453 99.9979 162.027 100.222 161.472V160.096H97.5819C96.1419 160.096 95.4219 160.597 95.4219 161.6C95.4219 162.091 95.6085 162.48 95.9819 162.768C96.3552 163.045 96.8779 163.184 97.5499 163.184ZM112.155 152.128V164H111.067V162.336C110.725 162.901 110.272 163.333 109.707 163.632C109.152 163.931 108.523 164.08 107.819 164.08C107.029 164.08 106.315 163.899 105.675 163.536C105.035 163.173 104.533 162.667 104.171 162.016C103.808 161.365 103.627 160.624 103.627 159.792C103.627 158.96 103.808 158.219 104.171 157.568C104.533 156.917 105.035 156.416 105.675 156.064C106.315 155.701 107.029 155.52 107.819 155.52C108.501 155.52 109.115 155.664 109.659 155.952C110.213 156.229 110.667 156.64 111.019 157.184V152.128H112.155ZM107.915 163.072C108.501 163.072 109.029 162.939 109.499 162.672C109.979 162.395 110.352 162.005 110.619 161.504C110.896 161.003 111.035 160.432 111.035 159.792C111.035 159.152 110.896 158.581 110.619 158.08C110.352 157.579 109.979 157.195 109.499 156.928C109.029 156.651 108.501 156.512 107.915 156.512C107.317 156.512 106.779 156.651 106.299 156.928C105.829 157.195 105.456 157.579 105.179 158.08C104.912 158.581 104.779 159.152 104.779 159.792C104.779 160.432 104.912 161.003 105.179 161.504C105.456 162.005 105.829 162.395 106.299 162.672C106.779 162.939 107.317 163.072 107.915 163.072ZM118.758 164.08C117.948 164.08 117.217 163.899 116.566 163.536C115.916 163.163 115.404 162.651 115.03 162C114.657 161.349 114.47 160.613 114.47 159.792C114.47 158.971 114.657 158.235 115.03 157.584C115.404 156.933 115.916 156.427 116.566 156.064C117.217 155.701 117.948 155.52 118.758 155.52C119.569 155.52 120.3 155.701 120.95 156.064C121.601 156.427 122.108 156.933 122.47 157.584C122.844 158.235 123.03 158.971 123.03 159.792C123.03 160.613 122.844 161.349 122.47 162C122.108 162.651 121.601 163.163 120.95 163.536C120.3 163.899 119.569 164.08 118.758 164.08ZM118.758 163.072C119.356 163.072 119.889 162.939 120.358 162.672C120.838 162.395 121.212 162.005 121.478 161.504C121.745 161.003 121.878 160.432 121.878 159.792C121.878 159.152 121.745 158.581 121.478 158.08C121.212 157.579 120.838 157.195 120.358 156.928C119.889 156.651 119.356 156.512 118.758 156.512C118.161 156.512 117.622 156.651 117.142 156.928C116.673 157.195 116.3 157.579 116.022 158.08C115.756 158.581 115.622 159.152 115.622 159.792C115.622 160.432 115.756 161.003 116.022 161.504C116.3 162.005 116.673 162.395 117.142 162.672C117.622 162.939 118.161 163.072 118.758 163.072ZM127.606 164.08C126.923 164.08 126.267 163.984 125.638 163.792C125.019 163.589 124.534 163.339 124.182 163.04L124.694 162.144C125.046 162.421 125.488 162.651 126.022 162.832C126.555 163.003 127.11 163.088 127.686 163.088C128.454 163.088 129.019 162.971 129.382 162.736C129.755 162.491 129.942 162.149 129.942 161.712C129.942 161.403 129.84 161.163 129.638 160.992C129.435 160.811 129.179 160.677 128.87 160.592C128.56 160.496 128.15 160.405 127.638 160.32C126.955 160.192 126.406 160.064 125.99 159.936C125.574 159.797 125.216 159.568 124.918 159.248C124.63 158.928 124.486 158.485 124.486 157.92C124.486 157.216 124.779 156.64 125.366 156.192C125.952 155.744 126.768 155.52 127.814 155.52C128.358 155.52 128.902 155.595 129.446 155.744C129.99 155.883 130.438 156.069 130.79 156.304L130.294 157.216C129.6 156.736 128.774 156.496 127.814 156.496C127.088 156.496 126.539 156.624 126.166 156.88C125.803 157.136 125.622 157.472 125.622 157.888C125.622 158.208 125.723 158.464 125.926 158.656C126.139 158.848 126.4 158.992 126.71 159.088C127.019 159.173 127.446 159.264 127.99 159.36C128.662 159.488 129.2 159.616 129.606 159.744C130.011 159.872 130.358 160.091 130.646 160.4C130.934 160.709 131.078 161.136 131.078 161.68C131.078 162.416 130.768 163.003 130.15 163.44C129.542 163.867 128.694 164.08 127.606 164.08Z" fill="black"/>
<path fill-rule="evenodd" clip-rule="evenodd" d="M76.5 105C76.5 105 69 105 69 97.5C69 90 76.5 67.5 106.5 67.5C136.5 67.5 144 90 144 97.5C144 105 136.5 105 136.5 105H76.5ZM106.5 60C112.467 60 118.19 57.6295 122.41 53.4099C126.629 49.1903 129 43.4674 129 37.5C129 31.5326 126.629 25.8097 122.41 21.5901C118.19 17.3705 112.467 15 106.5 15C100.533 15 94.8097 17.3705 90.5901 21.5901C86.3705 25.8097 84 31.5326 84 37.5C84 43.4674 86.3705 49.1903 90.5901 53.4099C94.8097 57.6295 100.533 60 106.5 60ZM63.12 105C62.0082 102.659 61.4537 100.092 61.5 97.5C61.5 87.3375 66.6 76.875 76.02 69.6C71.3182 68.1513 66.4196 67.4428 61.5 67.5C31.5 67.5 24 90 24 97.5C24 105 31.5 105 31.5 105H63.12ZM57.75 60C62.7228 60 67.4919 58.0246 71.0083 54.5083C74.5246 50.9919 76.5 46.2228 76.5 41.25C76.5 36.2772 74.5246 31.5081 71.0083 27.9917C67.4919 24.4754 62.7228 22.5 57.75 22.5C52.7772 22.5 48.0081 24.4754 44.4917 27.9917C40.9754 31.5081 39 36.2772 39 41.25C39 46.2228 40.9754 50.9919 44.4917 54.5083C48.0081 58.0246 52.7772 60 57.75 60Z" fill="#F77950"/>
<defs>
<clipPath id="clip0">
<rect width="120" height="120" fill="white" transform="translate(888)"/>
</clipPath>
<clipPath id="clip1">
<rect width="120" height="120" fill="white" transform="translate(240)"/>
</clipPath>
</defs>
</svg>
