<svg width="120" height="120" viewBox="0 0 120 120" fill="none" xmlns="http://www.w3.org/2000/svg">
<g clip-path="url(#clip0)">
<path fill-rule="evenodd" clip-rule="evenodd" d="M105 22.5H15C13.0109 22.5 11.1032 23.2902 9.6967 24.6967C8.29018 26.1032 7.5 28.0109 7.5 30V90C7.5 91.9891 8.29018 93.8968 9.6967 95.3033C11.1032 96.7098 13.0109 97.5 15 97.5H105C106.989 97.5 108.897 96.7098 110.303 95.3033C111.71 93.8968 112.5 91.9891 112.5 90V30C112.5 28.0109 111.71 26.1032 110.303 24.6967C108.897 23.2902 106.989 22.5 105 22.5ZM15 15C11.0218 15 7.20644 16.5804 4.3934 19.3934C1.58035 22.2064 0 26.0218 0 30L0 90C0 93.9782 1.58035 97.7936 4.3934 100.607C7.20644 103.42 11.0218 105 15 105H105C108.978 105 112.794 103.42 115.607 100.607C118.42 97.7936 120 93.9782 120 90V30C120 26.0218 118.42 22.2064 115.607 19.3934C112.794 16.5804 108.978 15 105 15H15Z" fill="#F77950"/>
<path d="M82.5 41.25C82.5 40.2554 82.8951 39.3016 83.5983 38.5984C84.3016 37.8951 85.2554 37.5 86.25 37.5H101.25C102.245 37.5 103.198 37.8951 103.902 38.5984C104.605 39.3016 105 40.2554 105 41.25V48.75C105 49.7446 104.605 50.6984 103.902 51.4016C103.198 52.1049 102.245 52.5 101.25 52.5H86.25C85.2554 52.5 84.3016 52.1049 83.5983 51.4016C82.8951 50.6984 82.5 49.7446 82.5 48.75V41.25ZM7.5 67.5H112.5V82.5H7.5V67.5Z" fill="#F77950"/>
</g>
<defs>
<clipPath id="clip0">
<rect width="120" height="120" fill="white"/>
</clipPath>
</defs>
</svg>
