<svg width="120" height="90" viewBox="0 0 120 90" fill="none" xmlns="http://www.w3.org/2000/svg">
<path fill-rule="evenodd" clip-rule="evenodd" d="M52.5 90C52.5 90 45 90 45 82.5C45 75 52.5 52.5 82.5 52.5C112.5 52.5 120 75 120 82.5C120 90 112.5 90 112.5 90H52.5ZM82.5 45C88.4674 45 94.1903 42.6295 98.4099 38.4099C102.629 34.1903 105 28.4674 105 22.5C105 16.5326 102.629 10.8097 98.4099 6.5901C94.1903 2.37053 88.4674 0 82.5 0C76.5326 0 70.8097 2.37053 66.5901 6.5901C62.3705 10.8097 60 16.5326 60 22.5C60 28.4674 62.3705 34.1903 66.5901 38.4099C70.8097 42.6295 76.5326 45 82.5 45ZM39.12 90C38.0082 87.6586 37.4537 85.0915 37.5 82.5C37.5 72.3375 42.6 61.875 52.02 54.6C47.3182 53.1513 42.4196 52.4428 37.5 52.5C7.5 52.5 0 75 0 82.5C0 90 7.5 90 7.5 90H39.12ZM33.75 45C38.7228 45 43.4919 43.0246 47.0083 39.5083C50.5246 35.9919 52.5 31.2228 52.5 26.25C52.5 21.2772 50.5246 16.5081 47.0083 12.9917C43.4919 9.47544 38.7228 7.5 33.75 7.5C28.7772 7.5 24.0081 9.47544 20.4917 12.9917C16.9754 16.5081 15 21.2772 15 26.25C15 31.2228 16.9754 35.9919 20.4917 39.5083C24.0081 43.0246 28.7772 45 33.75 45Z" fill="#F77950"/>
</svg>
