<svg width="120" height="106" viewBox="0 0 120 106" fill="none" xmlns="http://www.w3.org/2000/svg">
<path fill-rule="evenodd" clip-rule="evenodd" d="M94.8225 105.5C104.842 105.5 112.5 96.8375 112.5 86.75V30.5H7.5V86.75C7.5 96.8375 15.1575 105.5 25.1775 105.5H94.8225ZM41.25 45.5C40.2554 45.5 39.3016 45.8951 38.5984 46.5984C37.8951 47.3016 37.5 48.2554 37.5 49.25C37.5 50.2446 37.8951 51.1984 38.5984 51.9016C39.3016 52.6049 40.2554 53 41.25 53H78.75C79.7446 53 80.6984 52.6049 81.4017 51.9016C82.1049 51.1984 82.5 50.2446 82.5 49.25C82.5 48.2554 82.1049 47.3016 81.4017 46.5984C80.6984 45.8951 79.7446 45.5 78.75 45.5H41.25ZM6 0.5C4.4087 0.5 2.88258 1.13214 1.75736 2.25736C0.632141 3.38258 0 4.9087 0 6.5L0 15.5C0 17.0913 0.632141 18.6174 1.75736 19.7426C2.88258 20.8679 4.4087 21.5 6 21.5H114C115.591 21.5 117.117 20.8679 118.243 19.7426C119.368 18.6174 120 17.0913 120 15.5V6.5C120 4.9087 119.368 3.38258 118.243 2.25736C117.117 1.13214 115.591 0.5 114 0.5H6Z" fill="#F77950"/>
</svg>
